STARTFONT 2.1

COMMENT
COMMENT  This is the Tektite font, out of the VFONT utility by clySmic
COMMENT  Software. It's been heavily modified: the 0 and the * have been
COMMENT  altered, a load of new characters have been drawn, and of course
COMMENT  it's had a format conversion done on it.
COMMENT
COMMENT  All these modifications were done by Simon Tatham, who asserts
COMMENT  no copyright.
COMMENT
COMMENT  The original VFONT copyright says:
COMMENT
COMMENT    VFONT is copyright 1991, 1993, 1998 by clySmic software, and is
COMMENT    released as "Freeware".
COMMENT
COMMENT    You may copy the program and distribute it without charge.  You may
COMMENT    not sell or otherwise charge for VFONT. However, users' groups may
COMMENT    charge a small fee (not to exceed $10) for media and postage.
COMMENT

FONT -clySmic-Tektite-Medium-R-Normal--15-140-75-75-C-90-ISO10646-1
SIZE 14 75 75
FONTBOUNDINGBOX 9 15 0 -3

STARTPROPERTIES 24
  FONTNAME_REGISTRY ""
  FOUNDRY "clySmic"
  FAMILY_NAME "Tektite"
  WEIGHT_NAME "Medium"
  SLANT "R"
  SETWIDTH_NAME "Normal"
  ADD_STYLE_NAME ""
  PIXEL_SIZE 15
  POINT_SIZE 140
  RESOLUTION_X 75
  RESOLUTION_Y 75
  SPACING "C"
  AVERAGE_WIDTH 90
  CHARSET_REGISTRY "ISO10646"
  CHARSET_ENCODING "1"
  COPYRIGHT "Portions copyright 1991,1993,1998 clySmic Software."
  FONT "-clySmic-Tektite-Medium-R-Normal--15-140-75-75-C-90-ISO10646-1"
  WEIGHT 10
  RESOLUTION 103
  X_HEIGHT 12
  QUAD_WIDTH 9
  DEFAULT_CHAR 0
  FONT_ASCENT 12
  FONT_DESCENT 3
ENDPROPERTIES

CHARS 395

STARTCHAR space
ENCODING 32
SWIDTH 617 0
DWIDTH 9 0
BBX 9 15 0 -3
BITMAP
0000
0000
0000
0000
0000
0000
0000
0000
0000
0000
0000
0000
0000
0000
0000
ENDCHAR

STARTCHAR exclam
ENCODING 33
SWIDTH 617 0
DWIDTH 9 0
BBX 9 15 0 -3
BITMAP
0000
0000
0c00
0c00
0c00
0c00
0c00
0c00
0c00
0000
0c00
0c00
0000
0000
0000
ENDCHAR

STARTCHAR quotedbl
ENCODING 34
SWIDTH 617 0
DWIDTH 9 0
BBX 9 15 0 -3
BITMAP
0000
0000
1980
3300
6600
0000
0000
0000
0000
0000
0000
0000
0000
0000
0000
ENDCHAR

STARTCHAR numbersign
ENCODING 35
SWIDTH 617 0
DWIDTH 9 0
BBX 9 15 0 -3
BITMAP
0000
0000
1980
1980
7f80
3300
3300
3300
3300
7f80
6600
6600
0000
0000
0000
ENDCHAR

STARTCHAR dollar
ENCODING 36
SWIDTH 617 0
DWIDTH 9 0
BBX 9 15 0 -3
BITMAP
0000
0c00
3f00
6d80
6c00
3c00
0e00
0f00
0d80
6d80
6d80
3f00
0c00
0000
0000
ENDCHAR

STARTCHAR percent
ENCODING 37
SWIDTH 617 0
DWIDTH 9 0
BBX 9 15 0 -3
BITMAP
0000
0000
3000
6880
5980
3300
0600
0c00
1b00
3680
6580
0300
0000
0000
0000
ENDCHAR

STARTCHAR ampersand
ENCODING 38
SWIDTH 617 0
DWIDTH 9 0
BBX 9 15 0 -3
BITMAP
0000
0000
0e00
1b00
3300
1e00
1c00
3600
6380
6300
3700
1d80
0000
0000
0000
ENDCHAR

STARTCHAR apostrophe
ENCODING 39
SWIDTH 617 0
DWIDTH 9 0
BBX 9 15 0 -3
BITMAP
0000
0000
0600
0c00
1800
0000
0000
0000
0000
0000
0000
0000
0000
0000
0000
ENDCHAR

STARTCHAR parenleft
ENCODING 40
SWIDTH 617 0
DWIDTH 9 0
BBX 9 15 0 -3
BITMAP
0000
0600
0c00
1800
1800
3000
3000
3000
3000
1800
1800
0c00
0600
0000
0000
ENDCHAR

STARTCHAR parenright
ENCODING 41
SWIDTH 617 0
DWIDTH 9 0
BBX 9 15 0 -3
BITMAP
0000
1800
0c00
0600
0600
0300
0300
0300
0300
0600
0600
0c00
1800
0000
0000
ENDCHAR

STARTCHAR asterisk
ENCODING 42
SWIDTH 617 0
DWIDTH 9 0
BBX 9 15 0 -3
BITMAP
0000
0000
0000
0000
0000
3300
1e00
7f80
1e00
3300
0000
0000
0000
0000
0000
ENDCHAR

STARTCHAR plus
ENCODING 43
SWIDTH 617 0
DWIDTH 9 0
BBX 9 15 0 -3
BITMAP
0000
0000
0000
0000
0000
0c00
0c00
3f00
0c00
0c00
0000
0000
0000
0000
0000
ENDCHAR

STARTCHAR comma
ENCODING 44
SWIDTH 617 0
DWIDTH 9 0
BBX 9 15 0 -3
BITMAP
0000
0000
0000
0000
0000
0000
0000
0000
0000
0000
0600
0c00
1800
0000
0000
ENDCHAR

STARTCHAR minus
ENCODING 45
SWIDTH 617 0
DWIDTH 9 0
BBX 9 15 0 -3
BITMAP
0000
0000
0000
0000
0000
0000
0000
3f00
0000
0000
0000
0000
0000
0000
0000
ENDCHAR

STARTCHAR period
ENCODING 46
SWIDTH 617 0
DWIDTH 9 0
BBX 9 15 0 -3
BITMAP
0000
0000
0000
0000
0000
0000
0000
0000
0000
0000
0c00
0c00
0000
0000
0000
ENDCHAR

STARTCHAR slash
ENCODING 47
SWIDTH 617 0
DWIDTH 9 0
BBX 9 15 0 -3
BITMAP
0000
0000
0300
0200
0600
0400
0c00
0800
1800
1000
3000
2000
6000
0000
0000
ENDCHAR

STARTCHAR 0
ENCODING 48
SWIDTH 617 0
DWIDTH 9 0
BBX 9 15 0 -3
BITMAP
0000
0000
1f00
3180
6380
6780
6d80
7980
7180
6180
6300
3e00
0000
0000
0000
ENDCHAR

STARTCHAR 1
ENCODING 49
SWIDTH 617 0
DWIDTH 9 0
BBX 9 15 0 -3
BITMAP
0000
0000
0600
0e00
1e00
3600
0600
0600
0600
0600
0600
0600
0000
0000
0000
ENDCHAR

STARTCHAR 2
ENCODING 50
SWIDTH 617 0
DWIDTH 9 0
BBX 9 15 0 -3
BITMAP
0000
0000
1f00
3180
6180
0180
0300
0600
0c00
1800
3180
7f80
0000
0000
0000
ENDCHAR

STARTCHAR 3
ENCODING 51
SWIDTH 617 0
DWIDTH 9 0
BBX 9 15 0 -3
BITMAP
0000
0000
7f80
6300
0600
0c00
1f00
0180
0180
6180
6300
3e00
0000
0000
0000
ENDCHAR

STARTCHAR 4
ENCODING 52
SWIDTH 617 0
DWIDTH 9 0
BBX 9 15 0 -3
BITMAP
0000
0000
0300
0700
0f00
1b00
3300
6380
6f00
7b00
0300
0300
0000
0000
0000
ENDCHAR

STARTCHAR 5
ENCODING 53
SWIDTH 617 0
DWIDTH 9 0
BBX 9 15 0 -3
BITMAP
0000
0000
0f80
7800
6000
6e00
7b00
0180
0180
6180
6300
3e00
0000
0000
0000
ENDCHAR

STARTCHAR 6
ENCODING 54
SWIDTH 617 0
DWIDTH 9 0
BBX 9 15 0 -3
BITMAP
0000
0000
1e00
3300
6300
6000
6e00
7b00
6300
6300
6600
3c00
0000
0000
0000
ENDCHAR

STARTCHAR 7
ENCODING 55
SWIDTH 617 0
DWIDTH 9 0
BBX 9 15 0 -3
BITMAP
0000
0000
7f80
6180
0300
0600
0600
0c00
0c00
1800
1800
1800
0000
0000
0000
ENDCHAR

STARTCHAR 8
ENCODING 56
SWIDTH 617 0
DWIDTH 9 0
BBX 9 15 0 -3
BITMAP
0000
0000
1e00
3300
6300
3600
1f00
3180
6180
6180
6300
3e00
0000
0000
0000
ENDCHAR

STARTCHAR 9
ENCODING 57
SWIDTH 617 0
DWIDTH 9 0
BBX 9 15 0 -3
BITMAP
0000
0000
1e00
3300
6300
6300
6f00
3b00
0300
6300
6600
3c00
0000
0000
0000
ENDCHAR

STARTCHAR colon
ENCODING 58
SWIDTH 617 0
DWIDTH 9 0
BBX 9 15 0 -3
BITMAP
0000
0000
0000
0000
0c00
0c00
0000
0000
0000
0c00
0c00
0000
0000
0000
0000
ENDCHAR

STARTCHAR semicolon
ENCODING 59
SWIDTH 617 0
DWIDTH 9 0
BBX 9 15 0 -3
BITMAP
0000
0000
0000
0000
0c00
0c00
0000
0000
0000
0c00
0c00
1800
0000
0000
0000
ENDCHAR

STARTCHAR less
ENCODING 60
SWIDTH 617 0
DWIDTH 9 0
BBX 9 15 0 -3
BITMAP
0000
0000
0300
0600
0c00
1800
3000
3000
1800
0c00
0600
0300
0000
0000
0000
ENDCHAR

STARTCHAR equal
ENCODING 61
SWIDTH 617 0
DWIDTH 9 0
BBX 9 15 0 -3
BITMAP
0000
0000
0000
0000
0000
7f80
0000
0000
7f80
0000
0000
0000
0000
0000
0000
ENDCHAR

STARTCHAR greater
ENCODING 62
SWIDTH 617 0
DWIDTH 9 0
BBX 9 15 0 -3
BITMAP
0000
0000
3000
1800
0c00
0600
0300
0300
0600
0c00
1800
3000
0000
0000
0000
ENDCHAR

STARTCHAR question
ENCODING 63
SWIDTH 617 0
DWIDTH 9 0
BBX 9 15 0 -3
BITMAP
0000
0000
1f00
3180
6300
0600
0c00
1800
1800
0000
1800
1800
0000
0000
0000
ENDCHAR

STARTCHAR at
ENCODING 64
SWIDTH 617 0
DWIDTH 9 0
BBX 9 15 0 -3
BITMAP
0000
0000
0f00
1980
3780
6d80
6d80
6d80
6f00
6c00
6300
6e00
3800
0000
0000
ENDCHAR

STARTCHAR A
ENCODING 65
SWIDTH 617 0
DWIDTH 9 0
BBX 9 15 0 -3
BITMAP
0000
0000
0c00
0c00
1e00
1200
3300
3700
3d00
7180
6180
6180
0000
0000
0000
ENDCHAR

STARTCHAR B
ENCODING 66
SWIDTH 617 0
DWIDTH 9 0
BBX 9 15 0 -3
BITMAP
0000
0000
0f00
1980
7180
6300
6e00
7b80
6180
6300
6e00
7800
0000
0000
0000
ENDCHAR

STARTCHAR C
ENCODING 67
SWIDTH 617 0
DWIDTH 9 0
BBX 9 15 0 -3
BITMAP
0000
0000
0f00
1980
3000
6000
6000
6000
6000
6000
3180
1f00
0000
0000
0000
ENDCHAR

STARTCHAR D
ENCODING 68
SWIDTH 617 0
DWIDTH 9 0
BBX 9 15 0 -3
BITMAP
0000
0000
7e00
6300
6180
6180
6180
6180
6180
6300
6e00
7800
0000
0000
0000
ENDCHAR

STARTCHAR E
ENCODING 69
SWIDTH 617 0
DWIDTH 9 0
BBX 9 15 0 -3
BITMAP
0000
0000
0f00
7800
6000
6000
6e00
7800
6000
6000
6f00
7800
0000
0000
0000
ENDCHAR

STARTCHAR F
ENCODING 70
SWIDTH 617 0
DWIDTH 9 0
BBX 9 15 0 -3
BITMAP
0000
0000
0f00
7800
6000
6000
6e00
7800
6000
6000
6000
6000
0000
0000
0000
ENDCHAR

STARTCHAR G
ENCODING 71
SWIDTH 617 0
DWIDTH 9 0
BBX 9 15 0 -3
BITMAP
0000
0000
1f00
3180
6000
6000
6000
6780
6180
6180
3300
1e00
0000
0000
0000
ENDCHAR

STARTCHAR H
ENCODING 72
SWIDTH 617 0
DWIDTH 9 0
BBX 9 15 0 -3
BITMAP
0000
0000
6180
6180
6180
6180
6780
7d80
6180
6180
6180
6180
0000
0000
0000
ENDCHAR

STARTCHAR I
ENCODING 73
SWIDTH 617 0
DWIDTH 9 0
BBX 9 15 0 -3
BITMAP
0000
0000
0e00
1c00
0c00
0c00
0c00
0c00
0c00
0c00
0e00
1c00
0000
0000
0000
ENDCHAR

STARTCHAR J
ENCODING 74
SWIDTH 617 0
DWIDTH 9 0
BBX 9 15 0 -3
BITMAP
0000
0000
0180
0180
0180
0180
0180
0180
6180
6180
3180
1f00
0000
0000
0000
ENDCHAR

STARTCHAR K
ENCODING 75
SWIDTH 617 0
DWIDTH 9 0
BBX 9 15 0 -3
BITMAP
0000
0000
6180
6300
6e00
7800
7000
7800
6c00
6600
6300
6180
0000
0000
0000
ENDCHAR

STARTCHAR L
ENCODING 76
SWIDTH 617 0
DWIDTH 9 0
BBX 9 15 0 -3
BITMAP
0000
0000
6000
6000
6000
6000
6000
6000
6000
6000
6f00
7800
0000
0000
0000
ENDCHAR

STARTCHAR M
ENCODING 77
SWIDTH 617 0
DWIDTH 9 0
BBX 9 15 0 -3
BITMAP
0000
0000
6180
6180
7380
7780
7d80
6980
6180
6180
6180
6180
0000
0000
0000
ENDCHAR

STARTCHAR N
ENCODING 78
SWIDTH 617 0
DWIDTH 9 0
BBX 9 15 0 -3
BITMAP
0000
0000
6180
6180
7180
7980
6980
6d80
6780
6380
6180
6180
0000
0000
0000
ENDCHAR

STARTCHAR O
ENCODING 79
SWIDTH 617 0
DWIDTH 9 0
BBX 9 15 0 -3
BITMAP
0000
0000
1f00
3180
6180
6180
6180
6180
6180
6180
6300
3e00
0000
0000
0000
ENDCHAR

STARTCHAR P
ENCODING 80
SWIDTH 617 0
DWIDTH 9 0
BBX 9 15 0 -3
BITMAP
0000
0000
0f00
1980
7180
6180
6300
6e00
7800
6000
6000
6000
0000
0000
0000
ENDCHAR

STARTCHAR Q
ENCODING 81
SWIDTH 617 0
DWIDTH 9 0
BBX 9 15 0 -3
BITMAP
0000
0000
1f00
3180
6180
6180
6180
6180
7980
6f00
6600
3e00
0300
0180
0000
ENDCHAR

STARTCHAR R
ENCODING 82
SWIDTH 617 0
DWIDTH 9 0
BBX 9 15 0 -3
BITMAP
0000
0000
0f00
1980
7180
6180
6300
7e00
6c00
6600
6300
6180
0000
0000
0000
ENDCHAR

STARTCHAR S
ENCODING 83
SWIDTH 617 0
DWIDTH 9 0
BBX 9 15 0 -3
BITMAP
0000
0000
3f00
6180
6000
3800
0e00
0300
0180
6180
6180
3f00
0000
0000
0000
ENDCHAR

STARTCHAR T
ENCODING 84
SWIDTH 617 0
DWIDTH 9 0
BBX 9 15 0 -3
BITMAP
0000
0000
0780
7c00
0c00
0c00
0c00
0c00
0c00
0c00
0c00
0c00
0000
0000
0000
ENDCHAR

STARTCHAR U
ENCODING 85
SWIDTH 617 0
DWIDTH 9 0
BBX 9 15 0 -3
BITMAP
0000
0000
6180
6180
6180
6180
6180
6180
6300
6300
6600
3c00
0000
0000
0000
ENDCHAR

STARTCHAR V
ENCODING 86
SWIDTH 617 0
DWIDTH 9 0
BBX 9 15 0 -3
BITMAP
0000
0000
6180
6180
6180
6180
3300
3300
3e00
1c00
1800
1800
0000
0000
0000
ENDCHAR

STARTCHAR W
ENCODING 87
SWIDTH 617 0
DWIDTH 9 0
BBX 9 15 0 -3
BITMAP
0000
0000
6180
6180
6180
6180
6d80
6d80
6d80
7f80
7380
6180
0000
0000
0000
ENDCHAR

STARTCHAR X
ENCODING 88
SWIDTH 617 0
DWIDTH 9 0
BBX 9 15 0 -3
BITMAP
0000
0000
6180
6180
3300
3300
1e00
1e00
3300
3300
6180
6180
0000
0000
0000
ENDCHAR

STARTCHAR Y
ENCODING 89
SWIDTH 617 0
DWIDTH 9 0
BBX 9 15 0 -3
BITMAP
0000
0000
6180
6180
3300
3300
1e00
0c00
0c00
0c00
0c00
0c00
0000
0000
0000
ENDCHAR

STARTCHAR Z
ENCODING 90
SWIDTH 617 0
DWIDTH 9 0
BBX 9 15 0 -3
BITMAP
0000
0000
0f80
7b00
0200
0600
0c00
0800
1800
1000
3780
7c00
0000
0000
0000
ENDCHAR

STARTCHAR bracketleft
ENCODING 91
SWIDTH 617 0
DWIDTH 9 0
BBX 9 15 0 -3
BITMAP
0000
1f00
1800
1800
1800
1800
1800
1800
1800
1800
1800
1800
1f00
0000
0000
ENDCHAR

STARTCHAR backslash
ENCODING 92
SWIDTH 617 0
DWIDTH 9 0
BBX 9 15 0 -3
BITMAP
0000
0000
6000
2000
3000
1000
1800
0800
0c00
0400
0600
0200
0300
0000
0000
ENDCHAR

STARTCHAR bracketright
ENCODING 93
SWIDTH 617 0
DWIDTH 9 0
BBX 9 15 0 -3
BITMAP
0000
3e00
0600
0600
0600
0600
0600
0600
0600
0600
0600
0600
3e00
0000
0000
ENDCHAR

STARTCHAR asciicircum
ENCODING 94
SWIDTH 617 0
DWIDTH 9 0
BBX 9 15 0 -3
BITMAP
0000
0c00
1e00
3300
6000
0000
0000
0000
0000
0000
0000
0000
0000
0000
0000
ENDCHAR

STARTCHAR underscore
ENCODING 95
SWIDTH 617 0
DWIDTH 9 0
BBX 9 15 0 -3
BITMAP
0000
0000
0000
0000
0000
0000
0000
0000
0000
0000
0000
0000
0000
7f80
0000
ENDCHAR

STARTCHAR grave
ENCODING 96
SWIDTH 617 0
DWIDTH 9 0
BBX 9 15 0 -3
BITMAP
0000
0000
1800
0c00
0600
0000
0000
0000
0000
0000
0000
0000
0000
0000
0000
ENDCHAR

STARTCHAR a
ENCODING 97
SWIDTH 617 0
DWIDTH 9 0
BBX 9 15 0 -3
BITMAP
0000
0000
0000
0000
0000
1f00
3180
0f80
3980
6180
6780
3d80
0000
0000
0000
ENDCHAR

STARTCHAR b
ENCODING 98
SWIDTH 617 0
DWIDTH 9 0
BBX 9 15 0 -3
BITMAP
0000
0000
6000
6000
6000
6e00
7b00
6180
6180
6300
6e00
7800
0000
0000
0000
ENDCHAR

STARTCHAR c
ENCODING 99
SWIDTH 617 0
DWIDTH 9 0
BBX 9 15 0 -3
BITMAP
0000
0000
0000
0000
0000
0f00
1980
3000
6000
6000
6180
3f00
0000
0000
0000
ENDCHAR

STARTCHAR d
ENCODING 100
SWIDTH 617 0
DWIDTH 9 0
BBX 9 15 0 -3
BITMAP
0000
0000
0180
0180
0180
0f80
3980
6180
6380
6780
6d80
3980
0000
0000
0000
ENDCHAR

STARTCHAR e
ENCODING 101
SWIDTH 617 0
DWIDTH 9 0
BBX 9 15 0 -3
BITMAP
0000
0000
0000
0000
0000
1f00
3180
6700
7c00
6000
6180
3f00
0000
0000
0000
ENDCHAR

STARTCHAR f
ENCODING 102
SWIDTH 617 0
DWIDTH 9 0
BBX 9 15 0 -3
BITMAP
0000
0000
0f00
1980
1800
1800
1e00
7800
1800
1800
1800
1800
0000
0000
0000
ENDCHAR

STARTCHAR g
ENCODING 103
SWIDTH 617 0
DWIDTH 9 0
BBX 9 15 0 -3
BITMAP
0000
0000
0000
0000
0000
1f80
3180
6180
6380
6780
6d80
3980
0180
6180
3f00
ENDCHAR

STARTCHAR h
ENCODING 104
SWIDTH 617 0
DWIDTH 9 0
BBX 9 15 0 -3
BITMAP
0000
0000
6000
6000
6000
6700
6d80
7980
7180
6180
6180
6180
0000
0000
0000
ENDCHAR

STARTCHAR i
ENCODING 105
SWIDTH 617 0
DWIDTH 9 0
BBX 9 15 0 -3
BITMAP
0000
0000
0c00
0c00
0000
0c00
0c00
0c00
0c00
0c00
0c00
0c00
0000
0000
0000
ENDCHAR

STARTCHAR j
ENCODING 106
SWIDTH 617 0
DWIDTH 9 0
BBX 9 15 0 -3
BITMAP
0000
0000
0600
0600
0000
0600
0600
0600
0600
0600
0600
0600
6600
6600
3c00
ENDCHAR

STARTCHAR k
ENCODING 107
SWIDTH 617 0
DWIDTH 9 0
BBX 9 15 0 -3
BITMAP
0000
0000
6000
6000
6000
6300
6600
6c00
7c00
7600
6300
6180
0000
0000
0000
ENDCHAR

STARTCHAR l
ENCODING 108
SWIDTH 617 0
DWIDTH 9 0
BBX 9 15 0 -3
BITMAP
0000
0000
1c00
0c00
0c00
0c00
0c00
0c00
0c00
0c00
0c00
0c00
0000
0000
0000
ENDCHAR

STARTCHAR m
ENCODING 109
SWIDTH 617 0
DWIDTH 9 0
BBX 9 15 0 -3
BITMAP
0000
0000
0000
0000
0000
7300
6d80
6d80
6d80
6180
6180
6180
0000
0000
0000
ENDCHAR

STARTCHAR n
ENCODING 110
SWIDTH 617 0
DWIDTH 9 0
BBX 9 15 0 -3
BITMAP
0000
0000
0000
0000
0000
6700
6d80
7980
7180
6180
6180
6180
0000
0000
0000
ENDCHAR

STARTCHAR o
ENCODING 111
SWIDTH 617 0
DWIDTH 9 0
BBX 9 15 0 -3
BITMAP
0000
0000
0000
0000
0000
1f00
3180
6180
6180
6180
6300
3e00
0000
0000
0000
ENDCHAR

STARTCHAR p
ENCODING 112
SWIDTH 617 0
DWIDTH 9 0
BBX 9 15 0 -3
BITMAP
0000
0000
0000
0000
0000
6700
6d80
7980
7180
6180
6300
7e00
6000
6000
6000
ENDCHAR

STARTCHAR q
ENCODING 113
SWIDTH 617 0
DWIDTH 9 0
BBX 9 15 0 -3
BITMAP
0000
0000
0000
0000
0000
3980
6d80
6780
6380
6180
3180
1f80
0180
0180
0180
ENDCHAR

STARTCHAR r
ENCODING 114
SWIDTH 617 0
DWIDTH 9 0
BBX 9 15 0 -3
BITMAP
0000
0000
0000
0000
0000
6700
6d80
7980
7000
6000
6000
6000
0000
0000
0000
ENDCHAR

STARTCHAR s
ENCODING 115
SWIDTH 617 0
DWIDTH 9 0
BBX 9 15 0 -3
BITMAP
0000
0000
0000
0000
0000
3f00
6180
3800
0f00
0180
6180
3f00
0000
0000
0000
ENDCHAR

STARTCHAR t
ENCODING 116
SWIDTH 617 0
DWIDTH 9 0
BBX 9 15 0 -3
BITMAP
0000
0000
0800
1800
1800
1e00
7800
1800
1800
1b00
1e00
0c00
0000
0000
0000
ENDCHAR

STARTCHAR u
ENCODING 117
SWIDTH 617 0
DWIDTH 9 0
BBX 9 15 0 -3
BITMAP
0000
0000
0000
0000
0000
6180
6180
6180
6380
6780
6d80
3980
0000
0000
0000
ENDCHAR

STARTCHAR v
ENCODING 118
SWIDTH 617 0
DWIDTH 9 0
BBX 9 15 0 -3
BITMAP
0000
0000
0000
0000
0000
6180
6180
6180
3300
3600
1c00
0c00
0000
0000
0000
ENDCHAR

STARTCHAR w
ENCODING 119
SWIDTH 617 0
DWIDTH 9 0
BBX 9 15 0 -3
BITMAP
0000
0000
0000
0000
0000
6180
6180
6180
6d80
6d80
7f80
6180
0000
0000
0000
ENDCHAR

STARTCHAR x
ENCODING 120
SWIDTH 617 0
DWIDTH 9 0
BBX 9 15 0 -3
BITMAP
0000
0000
0000
0000
0000
6180
3300
1e00
0c00
1e00
3300
6180
0000
0000
0000
ENDCHAR

STARTCHAR y
ENCODING 121
SWIDTH 617 0
DWIDTH 9 0
BBX 9 15 0 -3
BITMAP
0000
0000
0000
0000
0000
6180
6180
6180
6180
6180
3300
1f00
0600
6c00
3800
ENDCHAR

STARTCHAR z
ENCODING 122
SWIDTH 617 0
DWIDTH 9 0
BBX 9 15 0 -3
BITMAP
0000
0000
0000
0000
0000
7f80
0300
0600
0c00
1800
3000
7f80
0000
0000
0000
ENDCHAR

STARTCHAR braceleft
ENCODING 123
SWIDTH 617 0
DWIDTH 9 0
BBX 9 15 0 -3
BITMAP
0000
0700
0c00
0c00
0c00
0c00
3800
3800
0c00
0c00
0c00
0c00
0700
0000
0000
ENDCHAR

STARTCHAR bar
ENCODING 124
SWIDTH 617 0
DWIDTH 9 0
BBX 9 15 0 -3
BITMAP
0000
0c00
0c00
0c00
0c00
0c00
0c00
0c00
0c00
0c00
0c00
0c00
0c00
0000
0000
ENDCHAR

STARTCHAR braceright
ENCODING 125
SWIDTH 617 0
DWIDTH 9 0
BBX 9 15 0 -3
BITMAP
0000
3800
0c00
0c00
0c00
0c00
0700
0700
0c00
0c00
0c00
0c00
3800
0000
0000
ENDCHAR

STARTCHAR asciitilde
ENCODING 126
SWIDTH 617 0
DWIDTH 9 0
BBX 9 15 0 -3
BITMAP
0000
0000
0000
0000
0000
0000
3b00
6e00
0000
0000
0000
0000
0000
0000
0000
ENDCHAR

STARTCHAR C177
ENCODING 127
SWIDTH 617 0
DWIDTH 9 0
BBX 9 15 0 -3
BITMAP
0000
0000
0000
0000
0000
0000
0000
0000
0000
0000
0000
0000
0000
0000
0000
ENDCHAR

STARTCHAR nobreakspace
ENCODING 160
SWIDTH 617 0
DWIDTH 9 0
BBX 9 15 0 -3
BITMAP
0000
0000
0000
0000
0000
0000
0000
0000
0000
0000
0000
0000
0000
0000
0000
ENDCHAR

STARTCHAR exclamdown
ENCODING 161
SWIDTH 617 0
DWIDTH 9 0
BBX 9 15 0 -3
BITMAP
0000
0000
0c00
0c00
0000
0c00
0c00
0c00
0c00
0c00
0c00
0c00
0000
0000
0000
ENDCHAR

STARTCHAR cent
ENCODING 162
SWIDTH 617 0
DWIDTH 9 0
BBX 9 15 0 -3
BITMAP
0000
0000
0000
0400
0400
0f00
1d80
3400
6400
6400
6580
3f00
0400
0400
0000
ENDCHAR

STARTCHAR sterling
ENCODING 163
SWIDTH 617 0
DWIDTH 9 0
BBX 9 15 0 -3
BITMAP
0000
0000
1e00
3300
3000
7c00
3000
7c00
3000
3000
3180
3f00
0000
0000
0000
ENDCHAR

STARTCHAR currency
ENCODING 164
SWIDTH 617 0
DWIDTH 9 0
BBX 9 15 0 -3
BITMAP
0000
0000
0000
6180
3f00
1b00
3300
3300
3600
3f00
6180
0000
0000
0000
0000
ENDCHAR

STARTCHAR yen
ENCODING 165
SWIDTH 617 0
DWIDTH 9 0
BBX 9 15 0 -3
BITMAP
0000
0000
6180
6180
3300
3300
1e00
0c00
3f00
0c00
3f00
0c00
0c00
0000
0000
ENDCHAR

STARTCHAR brokenbar
ENCODING 166
SWIDTH 617 0
DWIDTH 9 0
BBX 9 15 0 -3
BITMAP
0000
0c00
0c00
0c00
0c00
0c00
0000
0000
0c00
0c00
0c00
0c00
0c00
0000
0000
ENDCHAR

STARTCHAR section
ENCODING 167
SWIDTH 617 0
DWIDTH 9 0
BBX 9 15 0 -3
BITMAP
0000
0000
1f00
3000
3e00
1b00
3300
3300
3600
1f00
0300
3e00
0000
0000
0000
ENDCHAR

STARTCHAR diaeresis
ENCODING 168
SWIDTH 617 0
DWIDTH 9 0
BBX 9 15 0 -3
BITMAP
3300
3300
0000
0000
0000
0000
0000
0000
0000
0000
0000
0000
0000
0000
0000
ENDCHAR

STARTCHAR copyright
ENCODING 169
SWIDTH 617 0
DWIDTH 9 0
BBX 9 15 0 -3
BITMAP
0000
0000
0000
1f00
2080
4e80
5080
5080
5280
4c80
4100
3e00
0000
0000
0000
ENDCHAR

STARTCHAR ordfeminine
ENCODING 170
SWIDTH 617 0
DWIDTH 9 0
BBX 9 15 0 -3
BITMAP
0000
0000
1f00
3180
0f80
3980
6180
6780
3d80
0000
0000
7f80
0000
0000
0000
ENDCHAR

STARTCHAR guillemotleft
ENCODING 171
SWIDTH 617 0
DWIDTH 9 0
BBX 9 15 0 -3
BITMAP
0000
0000
0000
0000
0180
1b00
3600
6c00
6c00
3600
1b00
0000
0000
0000
0000
ENDCHAR

STARTCHAR notsign
ENCODING 172
SWIDTH 617 0
DWIDTH 9 0
BBX 9 15 0 -3
BITMAP
0000
0000
0000
0000
0000
0000
7f00
0300
0300
0300
0000
0000
0000
0000
0000
ENDCHAR

STARTCHAR hyphen
ENCODING 173
SWIDTH 617 0
DWIDTH 9 0
BBX 9 15 0 -3
BITMAP
0000
0000
0000
0000
0000
0000
0000
3f00
0000
0000
0000
0000
0000
0000
0000
ENDCHAR

STARTCHAR registered
ENCODING 174
SWIDTH 617 0
DWIDTH 9 0
BBX 9 15 0 -3
BITMAP
0000
0000
0000
1f00
2080
4e80
5280
5c80
5280
5280
4100
3e00
0000
0000
0000
ENDCHAR

STARTCHAR macron
ENCODING 175
SWIDTH 617 0
DWIDTH 9 0
BBX 9 15 0 -3
BITMAP
0000
0000
0000
3f00
0000
0000
0000
0000
0000
0000
0000
0000
0000
0000
0000
ENDCHAR

STARTCHAR degree
ENCODING 176
SWIDTH 617 0
DWIDTH 9 0
BBX 9 15 0 -3
BITMAP
0000
0000
1e00
3300
3300
1e00
0000
0000
0000
0000
0000
0000
0000
0000
0000
ENDCHAR

STARTCHAR plusminus
ENCODING 177
SWIDTH 617 0
DWIDTH 9 0
BBX 9 15 0 -3
BITMAP
0000
0000
0000
0000
0c00
0c00
3f00
0c00
0c00
0000
0000
3f00
0000
0000
0000
ENDCHAR

STARTCHAR twosuperior
ENCODING 178
SWIDTH 617 0
DWIDTH 9 0
BBX 9 15 0 -3
BITMAP
0000
0000
3c00
6600
0c00
1800
3200
7e00
0000
0000
0000
0000
0000
0000
0000
ENDCHAR

STARTCHAR threesuperior
ENCODING 179
SWIDTH 617 0
DWIDTH 9 0
BBX 9 15 0 -3
BITMAP
0000
0000
7e00
0600
1c00
0600
6600
3c00
0000
0000
0000
0000
0000
0000
0000
ENDCHAR

STARTCHAR acute
ENCODING 180
SWIDTH 617 0
DWIDTH 9 0
BBX 9 15 0 -3
BITMAP
0600
0c00
1800
0000
0000
0000
0000
0000
0000
0000
0000
0000
0000
0000
0000
ENDCHAR

STARTCHAR mu
ENCODING 181
SWIDTH 617 0
DWIDTH 9 0
BBX 9 15 0 -3
BITMAP
0000
0000
0000
0000
0000
3180
3180
3180
3180
3380
3780
3d80
3000
3000
6000
ENDCHAR

STARTCHAR paragraph
ENCODING 182
SWIDTH 617 0
DWIDTH 9 0
BBX 9 15 0 -3
BITMAP
0000
0000
3e00
7f80
7d80
7d80
3d80
1d80
0f80
0d80
0d80
0d80
0000
0000
0000
ENDCHAR

STARTCHAR periodcentered
ENCODING 183
SWIDTH 617 0
DWIDTH 9 0
BBX 9 15 0 -3
BITMAP
0000
0000
0000
0000
0000
0000
0c00
1e00
1e00
0c00
0000
0000
0000
0000
0000
ENDCHAR

STARTCHAR cedilla
ENCODING 184
SWIDTH 617 0
DWIDTH 9 0
BBX 9 15 0 -3
BITMAP
0000
0000
0000
0000
0000
0000
0000
0000
0000
0000
0000
0000
0600
0c00
7800
ENDCHAR

STARTCHAR onesuperior
ENCODING 185
SWIDTH 617 0
DWIDTH 9 0
BBX 9 15 0 -3
BITMAP
0000
0000
1800
3800
1800
1800
1800
1800
0000
0000
0000
0000
0000
0000
0000
ENDCHAR

STARTCHAR masculine
ENCODING 186
SWIDTH 617 0
DWIDTH 9 0
BBX 9 15 0 -3
BITMAP
0000
0000
1f00
3180
6180
6180
6180
6300
3e00
0000
0000
7f80
0000
0000
0000
ENDCHAR

STARTCHAR guillemotright
ENCODING 187
SWIDTH 617 0
DWIDTH 9 0
BBX 9 15 0 -3
BITMAP
0000
0000
0000
0000
0000
3600
1b00
0d80
0d80
1b00
3600
6000
0000
0000
0000
ENDCHAR

STARTCHAR onequarter
ENCODING 188
SWIDTH 617 0
DWIDTH 9 0
BBX 9 15 0 -3
BITMAP
0000
3000
7080
3180
3300
3600
0c00
1800
3300
6700
4b80
1f00
0300
0300
0000
ENDCHAR

STARTCHAR onehalf
ENCODING 189
SWIDTH 617 0
DWIDTH 9 0
BBX 9 15 0 -3
BITMAP
0000
3000
7080
3180
3300
3600
0c00
1800
3000
6700
4d80
0300
0680
0f80
0000
ENDCHAR

STARTCHAR threequarters
ENCODING 190
SWIDTH 617 0
DWIDTH 9 0
BBX 9 15 0 -3
BITMAP
0000
7000
1880
3180
1b00
7600
0c00
1800
3300
6700
4b80
1f00
0300
0300
0000
ENDCHAR

STARTCHAR questiondown
ENCODING 191
SWIDTH 617 0
DWIDTH 9 0
BBX 9 15 0 -3
BITMAP
0000
0000
0600
0600
0000
0600
0600
0c00
1800
3180
6300
3e00
0000
0000
0000
ENDCHAR

STARTCHAR Agrave
ENCODING 192
SWIDTH 617 0
DWIDTH 9 0
BBX 9 15 0 -3
BITMAP
1800
0c00
0600
0c00
1e00
1200
3300
3300
3f00
6180
6180
6180
0000
0000
0000
ENDCHAR

STARTCHAR Aacute
ENCODING 193
SWIDTH 617 0
DWIDTH 9 0
BBX 9 15 0 -3
BITMAP
0600
0c00
1800
0c00
1e00
1200
3300
3300
3f00
6180
6180
6180
0000
0000
0000
ENDCHAR

STARTCHAR Acircumflex
ENCODING 194
SWIDTH 617 0
DWIDTH 9 0
BBX 9 15 0 -3
BITMAP
0c00
1e00
3000
0c00
1e00
1200
3300
3300
3f00
6180
6180
6180
0000
0000
0000
ENDCHAR

STARTCHAR Atilde
ENCODING 195
SWIDTH 617 0
DWIDTH 9 0
BBX 9 15 0 -3
BITMAP
0180
3b00
6e00
0c00
1e00
1200
3300
3300
3f00
6180
6180
6180
0000
0000
0000
ENDCHAR

STARTCHAR Adiaeresis
ENCODING 196
SWIDTH 617 0
DWIDTH 9 0
BBX 9 15 0 -3
BITMAP
3300
3300
0c00
0c00
1e00
1200
3300
3300
3f00
6180
6180
6180
0000
0000
0000
ENDCHAR

STARTCHAR Aring
ENCODING 197
SWIDTH 617 0
DWIDTH 9 0
BBX 9 15 0 -3
BITMAP
0c00
1200
1200
0c00
1e00
1200
3300
3300
3f00
6180
6180
6180
0000
0000
0000
ENDCHAR

STARTCHAR AE
ENCODING 198
SWIDTH 617 0
DWIDTH 9 0
BBX 9 15 0 -3
BITMAP
0000
0000
1f80
1f00
1e00
3600
3780
3700
3e00
6600
6780
6700
0000
0000
0000
ENDCHAR

STARTCHAR Ccedilla
ENCODING 199
SWIDTH 617 0
DWIDTH 9 0
BBX 9 15 0 -3
BITMAP
0000
0000
0f00
1980
3000
6000
6000
6000
6000
6000
3180
1f00
0600
0c00
7800
ENDCHAR

STARTCHAR Egrave
ENCODING 200
SWIDTH 617 0
DWIDTH 9 0
BBX 9 15 0 -3
BITMAP
3000
1800
0c00
0f00
7800
6000
6f00
7800
6000
6000
6f00
7800
0000
0000
0000
ENDCHAR

STARTCHAR Eacute
ENCODING 201
SWIDTH 617 0
DWIDTH 9 0
BBX 9 15 0 -3
BITMAP
0c00
1800
3000
0f00
7800
6000
6f00
7800
6000
6000
6f00
7800
0000
0000
0000
ENDCHAR

STARTCHAR Ecircumflex
ENCODING 202
SWIDTH 617 0
DWIDTH 9 0
BBX 9 15 0 -3
BITMAP
0c00
1e00
3000
0f00
7800
6000
6f00
7800
6000
6000
6f00
7800
0000
0000
0000
ENDCHAR

STARTCHAR Ediaeresis
ENCODING 203
SWIDTH 617 0
DWIDTH 9 0
BBX 9 15 0 -3
BITMAP
3300
3300
0000
0f00
7800
6000
6f00
7800
6000
6000
6f00
7800
0000
0000
0000
ENDCHAR

STARTCHAR Igrave
ENCODING 204
SWIDTH 617 0
DWIDTH 9 0
BBX 9 15 0 -3
BITMAP
1800
0c00
0600
0e00
1c00
0c00
0c00
0c00
0c00
0c00
0e00
1c00
0000
0000
0000
ENDCHAR

STARTCHAR Iacute
ENCODING 205
SWIDTH 617 0
DWIDTH 9 0
BBX 9 15 0 -3
BITMAP
0600
0c00
1800
0e00
1c00
0c00
0c00
0c00
0c00
0c00
0e00
1c00
0000
0000
0000
ENDCHAR

STARTCHAR Icircumflex
ENCODING 206
SWIDTH 617 0
DWIDTH 9 0
BBX 9 15 0 -3
BITMAP
0c00
1e00
3000
0e00
1c00
0c00
0c00
0c00
0c00
0c00
0e00
1c00
0000
0000
0000
ENDCHAR

STARTCHAR Idiaeresis
ENCODING 207
SWIDTH 617 0
DWIDTH 9 0
BBX 9 15 0 -3
BITMAP
3300
3300
0000
0e00
1c00
0c00
0c00
0c00
0c00
0c00
0e00
1c00
0000
0000
0000
ENDCHAR

STARTCHAR ETH
ENCODING 208
SWIDTH 617 0
DWIDTH 9 0
BBX 9 15 0 -3
BITMAP
0000
0000
3e00
3300
3180
3180
7980
3180
3180
3300
3e00
3800
0000
0000
0000
ENDCHAR

STARTCHAR Ntilde
ENCODING 209
SWIDTH 617 0
DWIDTH 9 0
BBX 9 15 0 -3
BITMAP
0180
3b00
6e00
0000
6180
7180
7980
6980
6d80
6780
6380
6180
0000
0000
0000
ENDCHAR

STARTCHAR Ograve
ENCODING 210
SWIDTH 617 0
DWIDTH 9 0
BBX 9 15 0 -3
BITMAP
1800
0c00
0000
1f00
3180
6180
6180
6180
6180
6180
6300
3e00
0000
0000
0000
ENDCHAR

STARTCHAR Oacute
ENCODING 211
SWIDTH 617 0
DWIDTH 9 0
BBX 9 15 0 -3
BITMAP
0600
0c00
0000
1f00
3180
6180
6180
6180
6180
6180
6300
3e00
0000
0000
0000
ENDCHAR

STARTCHAR Ocircumflex
ENCODING 212
SWIDTH 617 0
DWIDTH 9 0
BBX 9 15 0 -3
BITMAP
0c00
1e00
3000
1f00
3180
6180
6180
6180
6180
6180
6300
3e00
0000
0000
0000
ENDCHAR

STARTCHAR Otilde
ENCODING 213
SWIDTH 617 0
DWIDTH 9 0
BBX 9 15 0 -3
BITMAP
0180
3b00
6e00
1f00
3180
6180
6180
6180
6180
6180
6300
3e00
0000
0000
0000
ENDCHAR

STARTCHAR Odiaeresis
ENCODING 214
SWIDTH 617 0
DWIDTH 9 0
BBX 9 15 0 -3
BITMAP
3300
3300
0000
1f00
3180
6180
6180
6180
6180
6180
6300
3e00
0000
0000
0000
ENDCHAR

STARTCHAR multiply
ENCODING 215
SWIDTH 617 0
DWIDTH 9 0
BBX 9 15 0 -3
BITMAP
0000
0000
0000
0000
0000
3300
1e00
0c00
1e00
3300
0000
0000
0000
0000
0000
ENDCHAR

STARTCHAR Ooblique
ENCODING 216
SWIDTH 617 0
DWIDTH 9 0
BBX 9 15 0 -3
BITMAP
0000
0300
1f00
3380
6780
6580
6d80
6980
6980
7980
7300
3e00
3000
0000
0000
ENDCHAR

STARTCHAR Ugrave
ENCODING 217
SWIDTH 617 0
DWIDTH 9 0
BBX 9 15 0 -3
BITMAP
1800
0c00
0600
6180
6180
6180
6180
6180
6300
6300
6600
3c00
0000
0000
0000
ENDCHAR

STARTCHAR Uacute
ENCODING 218
SWIDTH 617 0
DWIDTH 9 0
BBX 9 15 0 -3
BITMAP
0600
0c00
1800
6180
6180
6180
6180
6180
6300
6300
6600
3c00
0000
0000
0000
ENDCHAR

STARTCHAR Ucircumflex
ENCODING 219
SWIDTH 617 0
DWIDTH 9 0
BBX 9 15 0 -3
BITMAP
0c00
1e00
3000
0180
6180
6180
6180
6180
6300
6300
6600
3c00
0000
0000
0000
ENDCHAR

STARTCHAR Udiaeresis
ENCODING 220
SWIDTH 617 0
DWIDTH 9 0
BBX 9 15 0 -3
BITMAP
3300
3300
0000
6180
6180
6180
6180
6180
6300
6300
6600
3c00
0000
0000
0000
ENDCHAR

STARTCHAR Yacute
ENCODING 221
SWIDTH 617 0
DWIDTH 9 0
BBX 9 15 0 -3
BITMAP
0600
0c00
1800
6180
6180
3300
3300
1e00
0c00
0c00
0c00
0c00
0000
0000
0000
ENDCHAR

STARTCHAR THORN
ENCODING 222
SWIDTH 617 0
DWIDTH 9 0
BBX 9 15 0 -3
BITMAP
0000
0000
6000
6000
6f00
7980
6180
6180
6300
7e00
6000
6000
0000
0000
0000
ENDCHAR

STARTCHAR ssharp
ENCODING 223
SWIDTH 617 0
DWIDTH 9 0
BBX 9 15 0 -3
BITMAP
0000
0000
0f00
1980
7180
6100
6600
6100
6180
6180
6700
6c00
0000
0000
0000
ENDCHAR

STARTCHAR agrave
ENCODING 224
SWIDTH 617 0
DWIDTH 9 0
BBX 9 15 0 -3
BITMAP
0000
1800
0c00
0600
0000
1f00
3180
0f80
3980
6180
6780
3d80
0000
0000
0000
ENDCHAR

STARTCHAR aacute
ENCODING 225
SWIDTH 617 0
DWIDTH 9 0
BBX 9 15 0 -3
BITMAP
0000
0300
0600
0c00
0000
1f00
3180
0f80
3980
6180
6780
3d80
0000
0000
0000
ENDCHAR

STARTCHAR acircumflex
ENCODING 226
SWIDTH 617 0
DWIDTH 9 0
BBX 9 15 0 -3
BITMAP
0600
0f00
1980
3000
0000
1f00
3180
0f80
3980
6180
6780
3d80
0000
0000
0000
ENDCHAR

STARTCHAR atilde
ENCODING 227
SWIDTH 617 0
DWIDTH 9 0
BBX 9 15 0 -3
BITMAP
0000
0180
3b00
6e00
0000
1f00
3180
0f80
3980
6180
6780
3d80
0000
0000
0000
ENDCHAR

STARTCHAR adiaeresis
ENCODING 228
SWIDTH 617 0
DWIDTH 9 0
BBX 9 15 0 -3
BITMAP
0000
0000
1b00
1b00
0000
1f00
3180
0f80
3980
6180
6780
3d80
0000
0000
0000
ENDCHAR

STARTCHAR aring
ENCODING 229
SWIDTH 617 0
DWIDTH 9 0
BBX 9 15 0 -3
BITMAP
0e00
1b00
1b00
0e00
0000
1f00
3180
0f80
3980
6180
6780
3d80
0000
0000
0000
ENDCHAR

STARTCHAR ae
ENCODING 230
SWIDTH 617 0
DWIDTH 9 0
BBX 9 15 0 -3
BITMAP
0000
0000
0000
0000
0000
3f00
6d80
1d80
3f00
6e00
6d80
3700
0000
0000
0000
ENDCHAR

STARTCHAR ccedilla
ENCODING 231
SWIDTH 617 0
DWIDTH 9 0
BBX 9 15 0 -3
BITMAP
0000
0000
0000
0000
0000
0f00
1980
3000
6000
6000
6180
3f00
0600
0c00
7800
ENDCHAR

STARTCHAR egrave
ENCODING 232
SWIDTH 617 0
DWIDTH 9 0
BBX 9 15 0 -3
BITMAP
0000
3000
1800
0c00
0000
1f00
3180
6700
7c00
6000
6180
3f00
0000
0000
0000
ENDCHAR

STARTCHAR eacute
ENCODING 233
SWIDTH 617 0
DWIDTH 9 0
BBX 9 15 0 -3
BITMAP
0000
0300
0600
0c00
0000
1f00
3180
6700
7c00
6000
6180
3f00
0000
0000
0000
ENDCHAR

STARTCHAR ecircumflex
ENCODING 234
SWIDTH 617 0
DWIDTH 9 0
BBX 9 15 0 -3
BITMAP
0c00
1e00
3300
6000
0000
1f00
3180
6700
7c00
6000
6180
3f00
0000
0000
0000
ENDCHAR

STARTCHAR ediaeresis
ENCODING 235
SWIDTH 617 0
DWIDTH 9 0
BBX 9 15 0 -3
BITMAP
0000
0000
3300
3300
0000
1f00
3180
6700
7c00
6000
6180
3f00
0000
0000
0000
ENDCHAR

STARTCHAR igrave
ENCODING 236
SWIDTH 617 0
DWIDTH 9 0
BBX 9 15 0 -3
BITMAP
0000
3000
1800
0c00
0000
0c00
0c00
0c00
0c00
0c00
0c00
0c00
0000
0000
0000
ENDCHAR

STARTCHAR iacute
ENCODING 237
SWIDTH 617 0
DWIDTH 9 0
BBX 9 15 0 -3
BITMAP
0000
0300
0600
0c00
0000
0c00
0c00
0c00
0c00
0c00
0c00
0c00
0000
0000
0000
ENDCHAR

STARTCHAR icircumflex
ENCODING 238
SWIDTH 617 0
DWIDTH 9 0
BBX 9 15 0 -3
BITMAP
0c00
1e00
3300
6000
0000
0c00
0c00
0c00
0c00
0c00
0c00
0c00
0000
0000
0000
ENDCHAR

STARTCHAR idiaeresis
ENCODING 239
SWIDTH 617 0
DWIDTH 9 0
BBX 9 15 0 -3
BITMAP
0000
0000
3300
3300
0000
0c00
0c00
0c00
0c00
0c00
0c00
0c00
0000
0000
0000
ENDCHAR

STARTCHAR eth
ENCODING 240
SWIDTH 617 0
DWIDTH 9 0
BBX 9 15 0 -3
BITMAP
0000
3000
1e00
3c00
0600
1f00
3180
6180
6180
6180
6300
3e00
0000
0000
0000
ENDCHAR

STARTCHAR ntilde
ENCODING 241
SWIDTH 617 0
DWIDTH 9 0
BBX 9 15 0 -3
BITMAP
0000
0180
3b00
6e00
0000
6700
6d80
7980
7180
6180
6180
6180
0000
0000
0000
ENDCHAR

STARTCHAR ograve
ENCODING 242
SWIDTH 617 0
DWIDTH 9 0
BBX 9 15 0 -3
BITMAP
0000
3000
1800
0c00
0000
1f00
3180
6180
6180
6180
6300
3e00
0000
0000
0000
ENDCHAR

STARTCHAR oacute
ENCODING 243
SWIDTH 617 0
DWIDTH 9 0
BBX 9 15 0 -3
BITMAP
0000
0300
0600
0c00
0000
1f00
3180
6180
6180
6180
6300
3e00
0000
0000
0000
ENDCHAR

STARTCHAR ocircumflex
ENCODING 244
SWIDTH 617 0
DWIDTH 9 0
BBX 9 15 0 -3
BITMAP
0c00
1e00
3300
6000
0000
1f00
3180
6180
6180
6180
6300
3e00
0000
0000
0000
ENDCHAR

STARTCHAR otilde
ENCODING 245
SWIDTH 617 0
DWIDTH 9 0
BBX 9 15 0 -3
BITMAP
0000
0180
3b00
6e00
0000
1f00
3180
6180
6180
6180
6300
3e00
0000
0000
0000
ENDCHAR

STARTCHAR odiaeresis
ENCODING 246
SWIDTH 617 0
DWIDTH 9 0
BBX 9 15 0 -3
BITMAP
0000
0000
3300
3300
0000
1f00
3180
6180
6180
6180
6300
3e00
0000
0000
0000
ENDCHAR

STARTCHAR division
ENCODING 247
SWIDTH 617 0
DWIDTH 9 0
BBX 9 15 0 -3
BITMAP
0000
0000
0000
0000
0c00
0c00
0000
7f80
0000
0c00
0c00
0000
0000
0000
0000
ENDCHAR

STARTCHAR oslash
ENCODING 248
SWIDTH 617 0
DWIDTH 9 0
BBX 9 15 0 -3
BITMAP
0000
0000
0000
0000
0300
1f00
3780
6580
6d80
6980
7b00
3e00
3000
0000
0000
ENDCHAR

STARTCHAR ugrave
ENCODING 249
SWIDTH 617 0
DWIDTH 9 0
BBX 9 15 0 -3
BITMAP
0000
3000
1800
0c00
0000
6180
6180
6180
6380
6780
6d80
3980
0000
0000
0000
ENDCHAR

STARTCHAR uacute
ENCODING 250
SWIDTH 617 0
DWIDTH 9 0
BBX 9 15 0 -3
BITMAP
0000
0600
0c00
1800
0000
6180
6180
6180
6380
6780
6d80
3980
0000
0000
0000
ENDCHAR

STARTCHAR ucircumflex
ENCODING 251
SWIDTH 617 0
DWIDTH 9 0
BBX 9 15 0 -3
BITMAP
0c00
1e00
3300
6000
0000
6180
6180
6180
6380
6780
6d80
3980
0000
0000
0000
ENDCHAR

STARTCHAR udiaeresis
ENCODING 252
SWIDTH 617 0
DWIDTH 9 0
BBX 9 15 0 -3
BITMAP
0000
0000
3300
3300
0000
6180
6180
6180
6380
6780
6d80
3980
0000
0000
0000
ENDCHAR

STARTCHAR yacute
ENCODING 253
SWIDTH 617 0
DWIDTH 9 0
BBX 9 15 0 -3
BITMAP
0000
0600
0c00
1800
0000
6180
6180
6180
6180
6180
3300
1f00
0600
6c00
3800
ENDCHAR

STARTCHAR thorn
ENCODING 254
SWIDTH 617 0
DWIDTH 9 0
BBX 9 15 0 -3
BITMAP
0000
0000
0000
6000
6000
6f00
7980
6180
6180
6180
6300
7e00
6000
6000
0000
ENDCHAR

STARTCHAR ydiaeresis
ENCODING 255
SWIDTH 617 0
DWIDTH 9 0
BBX 9 15 0 -3
BITMAP
0000
0000
3300
3300
0000
6180
6180
6180
6180
6180
3300
1f00
0600
6c00
3800
ENDCHAR

STARTCHAR OE
ENCODING 338
SWIDTH 540 0
DWIDTH 9 0
BBX 9 15 0 -3
BITMAP
0000
0000
3F80
7F00
6C00
6C00
6F80
6F00
6C00
6C00
6F80
3F00
0000
0000
0000
ENDCHAR

STARTCHAR oe
ENCODING 339
SWIDTH 540 0
DWIDTH 9 0
BBX 9 15 0 -3
BITMAP
0000
0000
0000
0000
0000
3F00
7D80
6D80
6F00
6E00
6D80
3B00
0000
0000
0000
ENDCHAR

STARTCHAR Scaron
ENCODING 352
SWIDTH 540 0
DWIDTH 9 0
BBX 9 15 0 -3
BITMAP
3300
1E00
3F00
6180
6000
3800
0E00
0300
0180
6180
6180
3F00
0000
0000
0000
ENDCHAR

STARTCHAR scaron
ENCODING 353
SWIDTH 540 0
DWIDTH 9 0
BBX 9 15 0 -3
BITMAP
0000
3300
1E00
0C00
0000
3F00
6180
3800
0F00
0180
6180
3F00
0000
0000
0000
ENDCHAR

STARTCHAR Ydieresis
ENCODING 376
SWIDTH 540 0
DWIDTH 9 0
BBX 9 15 0 -3
BITMAP
3300
0000
6180
6180
3300
3300
1E00
0C00
0C00
0C00
0C00
0C00
0000
0000
0000
ENDCHAR

STARTCHAR Zcaron
ENCODING 381
SWIDTH 540 0
DWIDTH 9 0
BBX 9 15 0 -3
BITMAP
3300
1E00
0F80
7B00
0200
0600
0C00
0800
1800
1000
3780
7C00
0000
0000
0000
ENDCHAR

STARTCHAR zcaron
ENCODING 382
SWIDTH 540 0
DWIDTH 9 0
BBX 9 15 0 -3
BITMAP
0000
3300
1E00
0C00
0000
7F80
0300
0600
0C00
1800
3000
7F80
0000
0000
0000
ENDCHAR

STARTCHAR florin
ENCODING 402
SWIDTH 540 0
DWIDTH 9 0
BBX 9 15 0 -3
BITMAP
0000
0000
0F00
1980
1800
1800
1E00
7800
1800
1800
1800
5800
3000
0000
0000
ENDCHAR

STARTCHAR circumflex
ENCODING 710
SWIDTH 540 0
DWIDTH 9 0
BBX 9 15 0 -3
BITMAP
0600
0F00
1980
3000
0000
0000
0000
0000
0000
0000
0000
0000
0000
0000
0000
ENDCHAR

STARTCHAR tilde
ENCODING 732
SWIDTH 540 0
DWIDTH 9 0
BBX 9 15 0 -3
BITMAP
0180
3B00
6E00
0000
0000
0000
0000
0000
0000
0000
0000
0000
0000
0000
0000
ENDCHAR

STARTCHAR C034
ENCODING 960
SWIDTH 617 0
DWIDTH 9 0
BBX 9 15 0 -3
BITMAP
0000
0000
0000
0000
0180
3f00
7300
3300
3300
3300
3300
2200
0000
0000
0000
ENDCHAR

STARTCHAR endash
ENCODING 8211
SWIDTH 540 0
DWIDTH 9 0
BBX 9 15 0 -3
BITMAP
0000
0000
0000
0000
0000
0000
0000
7F00
0000
0000
0000
0000
0000
0000
0000
ENDCHAR

STARTCHAR emdash
ENCODING 8212
SWIDTH 540 0
DWIDTH 9 0
BBX 9 15 0 -3
BITMAP
0000
0000
0000
0000
0000
0000
0000
7F80
0000
0000
0000
0000
0000
0000
0000
ENDCHAR

STARTCHAR quoteleft
ENCODING 8216
SWIDTH 540 0
DWIDTH 9 0
BBX 9 15 0 -3
BITMAP
0000
0600
0C00
1C00
1C00
0000
0000
0000
0000
0000
0000
0000
0000
0000
0000
ENDCHAR

STARTCHAR quoteright
ENCODING 8217
SWIDTH 540 0
DWIDTH 9 0
BBX 9 15 0 -3
BITMAP
0000
0E00
0E00
0C00
1800
0000
0000
0000
0000
0000
0000
0000
0000
0000
0000
ENDCHAR

STARTCHAR quotesinglbase
ENCODING 8218
SWIDTH 540 0
DWIDTH 9 0
BBX 9 15 0 -3
BITMAP
0000
0000
0000
0000
0000
0000
0000
0000
0000
0000
0E00
0E00
0C00
1800
0000
ENDCHAR

STARTCHAR quotedblleft
ENCODING 8220
SWIDTH 540 0
DWIDTH 9 0
BBX 9 15 0 -3
BITMAP
0000
1980
3300
7700
7700
0000
0000
0000
0000
0000
0000
0000
0000
0000
0000
ENDCHAR

STARTCHAR quotedblright
ENCODING 8221
SWIDTH 540 0
DWIDTH 9 0
BBX 9 15 0 -3
BITMAP
0000
3B80
3B80
3300
6600
0000
0000
0000
0000
0000
0000
0000
0000
0000
0000
ENDCHAR

STARTCHAR quotedblbase
ENCODING 8222
SWIDTH 540 0
DWIDTH 9 0
BBX 9 15 0 -3
BITMAP
0000
0000
0000
0000
0000
0000
0000
0000
0000
0000
3B80
3B80
3300
6600
0000
ENDCHAR

STARTCHAR dagger
ENCODING 8224
SWIDTH 540 0
DWIDTH 9 0
BBX 9 15 0 -3
BITMAP
0000
0C00
1E00
0C00
6D80
7F80
6D80
0C00
0C00
0C00
0C00
0C00
0800
0800
0000
ENDCHAR

STARTCHAR daggerdbl
ENCODING 8225
SWIDTH 540 0
DWIDTH 9 0
BBX 9 15 0 -3
BITMAP
0000
0C00
1E00
0C00
6D80
7F80
6D80
0C00
6D80
7F80
6D80
0C00
1E00
0C00
0000
ENDCHAR

STARTCHAR bullet
ENCODING 8226
SWIDTH 540 0
DWIDTH 9 0
BBX 9 15 0 -3
BITMAP
0000
0000
0000
0000
0000
1C00
3E00
3E00
3E00
1C00
0000
0000
0000
0000
0000
ENDCHAR

STARTCHAR ellipsis
ENCODING 8230
SWIDTH 540 0
DWIDTH 9 0
BBX 9 15 0 -3
BITMAP
0000
0000
0000
0000
0000
0000
0000
0000
0000
0000
6D80
6D80
0000
0000
0000
ENDCHAR

STARTCHAR perthousand
ENCODING 8240
SWIDTH 540 0
DWIDTH 9 0
BBX 9 15 0 -3
BITMAP
0000
3080
6980
5B00
3600
0C00
1800
3000
6000
5B00
3680
2D80
1B00
0000
0000
ENDCHAR

STARTCHAR guilsinglleft
ENCODING 8249
SWIDTH 540 0
DWIDTH 9 0
BBX 9 15 0 -3
BITMAP
0000
0000
0000
0000
0300
0600
0C00
1800
1800
0C00
0600
0000
0000
0000
0000
ENDCHAR

STARTCHAR guilsinglright
ENCODING 8250
SWIDTH 540 0
DWIDTH 9 0
BBX 9 15 0 -3
BITMAP
0000
0000
0000
0000
0000
1800
0C00
0600
0600
0C00
1800
3000
0000
0000
0000
ENDCHAR

STARTCHAR Euro
ENCODING 8364
SWIDTH 540 0
DWIDTH 9 0
BBX 9 15 0 -3
BITMAP
0000
0000
0F00
1980
3000
7F00
3000
7F00
3000
3000
1980
0F00
0000
0000
0000
ENDCHAR

STARTCHAR trademark
ENCODING 8482
SWIDTH 540 0
DWIDTH 9 0
BBX 9 15 0 -3
BITMAP
0000
FD80
6F80
6F80
6D80
6D80
0000
0000
0000
0000
0000
0000
0000
0000
0000
ENDCHAR

STARTCHAR C035
ENCODING 8800
SWIDTH 617 0
DWIDTH 9 0
BBX 9 15 0 -3
BITMAP
0000
0000
0000
0300
0600
7f80
0c00
0800
7f80
1000
3000
0000
0000
0000
0000
ENDCHAR

STARTCHAR C032
ENCODING 8804
SWIDTH 617 0
DWIDTH 9 0
BBX 9 15 0 -3
BITMAP
0000
0000
0000
0600
0c00
1800
3000
1800
0c00
0600
0000
3f00
0000
0000
0000
ENDCHAR

STARTCHAR C033
ENCODING 8805
SWIDTH 617 0
DWIDTH 9 0
BBX 9 15 0 -3
BITMAP
0000
0000
0000
1800
0c00
0600
0300
0600
0c00
1800
0000
3f00
0000
0000
0000
ENDCHAR

STARTCHAR C020
ENCODING 9146
SWIDTH 617 0
DWIDTH 9 0
BBX 9 15 0 -3
BITMAP
0000
0000
ff80
0000
0000
0000
0000
0000
0000
0000
0000
0000
0000
0000
0000
ENDCHAR

STARTCHAR C021
ENCODING 9147
SWIDTH 617 0
DWIDTH 9 0
BBX 9 15 0 -3
BITMAP
0000
0000
0000
0000
0000
ff80
0000
0000
0000
0000
0000
0000
0000
0000
0000
ENDCHAR

STARTCHAR C023
ENCODING 9148
SWIDTH 617 0
DWIDTH 9 0
BBX 9 15 0 -3
BITMAP
0000
0000
0000
0000
0000
0000
0000
0000
0000
0000
0000
ff80
0000
0000
0000
ENDCHAR

STARTCHAR C024
ENCODING 9149
SWIDTH 617 0
DWIDTH 9 0
BBX 9 15 0 -3
BITMAP
0000
0000
0000
0000
0000
0000
0000
0000
0000
0000
0000
0000
0000
0000
ff80
ENDCHAR

STARTCHAR C003
ENCODING 9225
SWIDTH 617 0
DWIDTH 9 0
BBX 9 15 0 -3
BITMAP
0000
0000
6c00
6c00
7c00
6c00
6c00
0000
0780
0300
0300
0300
0000
0000
0000
ENDCHAR

STARTCHAR C006
ENCODING 9226
SWIDTH 617 0
DWIDTH 9 0
BBX 9 15 0 -3
BITMAP
0000
0000
6000
6000
6000
7800
0000
0f80
0c00
0f00
0c00
0c00
0000
0000
0000
ENDCHAR

STARTCHAR C012
ENCODING 9227
SWIDTH 617 0
DWIDTH 9 0
BBX 9 15 0 -3
BITMAP
0000
0000
6c00
6c00
3800
3800
1000
0000
1f80
0600
0600
0600
0000
0000
0000
ENDCHAR

STARTCHAR C004
ENCODING 9228
SWIDTH 617 0
DWIDTH 9 0
BBX 9 15 0 -3
BITMAP
0000
0000
7c00
6000
7800
6000
6000
0f80
0c00
0f00
0c00
0c00
0000
0000
0000
ENDCHAR

STARTCHAR C005
ENCODING 9229
SWIDTH 617 0
DWIDTH 9 0
BBX 9 15 0 -3
BITMAP
0000
0000
3c00
6000
6000
3c00
0000
0f00
0d80
0f00
0d80
0d80
0000
0000
0000
ENDCHAR

STARTCHAR C011
ENCODING 9252
SWIDTH 617 0
DWIDTH 9 0
BBX 9 15 0 -3
BITMAP
0000
0000
6600
7600
6e00
6600
6600
0000
0c00
0c00
0c00
0f80
0000
0000
0000
ENDCHAR

STARTCHAR C022
ENCODING 9472
SWIDTH 617 0
DWIDTH 9 0
BBX 9 15 0 -3
BITMAP
0000
0000
0000
0000
0000
0000
0000
0000
ff80
0000
0000
0000
0000
0000
0000
ENDCHAR

STARTCHAR char9473
ENCODING 9473
SWIDTH 617 0
DWIDTH 9 0
BBX 9 15 0 -3
BITMAP
0000
0000
0000
0000
0000
0000
0000
FF80
FF80
FF80
0000
0000
0000
0000
0000
ENDCHAR

STARTCHAR C031
ENCODING 9474
SWIDTH 617 0
DWIDTH 9 0
BBX 9 15 0 -3
BITMAP
0c00
0c00
0c00
0c00
0c00
0c00
0c00
0c00
0c00
0c00
0c00
0c00
0c00
0c00
0c00
ENDCHAR

STARTCHAR char9475
ENCODING 9475
SWIDTH 617 0
DWIDTH 9 0
BBX 9 15 0 -3
BITMAP
1E00
1E00
1E00
1E00
1E00
1E00
1E00
1E00
1E00
1E00
1E00
1E00
1E00
1E00
1E00
ENDCHAR

STARTCHAR char9476
ENCODING 9476
SWIDTH 617 0
DWIDTH 9 0
BBX 9 15 0 -3
BITMAP
0000
0000
0000
0000
0000
0000
0000
0000
6D80
0000
0000
0000
0000
0000
0000
ENDCHAR

STARTCHAR char9477
ENCODING 9477
SWIDTH 617 0
DWIDTH 9 0
BBX 9 15 0 -3
BITMAP
0000
0000
0000
0000
0000
0000
0000
6D80
6D80
6D80
0000
0000
0000
0000
0000
ENDCHAR

STARTCHAR char9478
ENCODING 9478
SWIDTH 617 0
DWIDTH 9 0
BBX 9 15 0 -3
BITMAP
0C00
0C00
0C00
0C00
0000
0C00
0C00
0C00
0C00
0000
0C00
0C00
0C00
0C00
0000
ENDCHAR

STARTCHAR char9479
ENCODING 9479
SWIDTH 617 0
DWIDTH 9 0
BBX 9 15 0 -3
BITMAP
1E00
1E00
1E00
1E00
0000
1E00
1E00
1E00
1E00
0000
1E00
1E00
1E00
1E00
0000
ENDCHAR

STARTCHAR char9480
ENCODING 9480
SWIDTH 617 0
DWIDTH 9 0
BBX 9 15 0 -3
BITMAP
0000
0000
0000
0000
0000
0000
0000
0000
5680
0000
0000
0000
0000
0000
0000
ENDCHAR

STARTCHAR char9481
ENCODING 9481
SWIDTH 617 0
DWIDTH 9 0
BBX 9 15 0 -3
BITMAP
0000
0000
0000
0000
0000
0000
0000
5680
5680
5680
0000
0000
0000
0000
0000
ENDCHAR

STARTCHAR char9482
ENCODING 9482
SWIDTH 617 0
DWIDTH 9 0
BBX 9 15 0 -3
BITMAP
0C00
0C00
0C00
0000
0C00
0C00
0C00
0000
0C00
0C00
0C00
0000
0C00
0C00
0000
ENDCHAR

STARTCHAR char9483
ENCODING 9483
SWIDTH 617 0
DWIDTH 9 0
BBX 9 15 0 -3
BITMAP
1E00
1E00
1E00
0000
1E00
1E00
1E00
0000
1E00
1E00
1E00
0000
1E00
1E00
0000
ENDCHAR

STARTCHAR C015
ENCODING 9484
SWIDTH 617 0
DWIDTH 9 0
BBX 9 15 0 -3
BITMAP
0000
0000
0000
0000
0000
0000
0000
0000
0f80
0c00
0c00
0c00
0c00
0c00
0c00
ENDCHAR

STARTCHAR char9485
ENCODING 9485
SWIDTH 617 0
DWIDTH 9 0
BBX 9 15 0 -3
BITMAP
0000
0000
0000
0000
0000
0000
0000
0F80
0F80
0F80
0C00
0C00
0C00
0C00
0C00
ENDCHAR

STARTCHAR char9486
ENCODING 9486
SWIDTH 617 0
DWIDTH 9 0
BBX 9 15 0 -3
BITMAP
0000
0000
0000
0000
0000
0000
0000
0000
1F80
1E00
1E00
1E00
1E00
1E00
1E00
ENDCHAR

STARTCHAR char9487
ENCODING 9487
SWIDTH 617 0
DWIDTH 9 0
BBX 9 15 0 -3
BITMAP
0000
0000
0000
0000
0000
0000
0000
1F80
1F80
1F80
1E00
1E00
1E00
1E00
1E00
ENDCHAR

STARTCHAR C014
ENCODING 9488
SWIDTH 617 0
DWIDTH 9 0
BBX 9 15 0 -3
BITMAP
0000
0000
0000
0000
0000
0000
0000
0000
fc00
0c00
0c00
0c00
0c00
0c00
0c00
ENDCHAR

STARTCHAR char9489
ENCODING 9489
SWIDTH 617 0
DWIDTH 9 0
BBX 9 15 0 -3
BITMAP
0000
0000
0000
0000
0000
0000
0000
FC00
FC00
FC00
0C00
0C00
0C00
0C00
0C00
ENDCHAR

STARTCHAR char9490
ENCODING 9490
SWIDTH 617 0
DWIDTH 9 0
BBX 9 15 0 -3
BITMAP
0000
0000
0000
0000
0000
0000
0000
0000
FE00
1E00
1E00
1E00
1E00
1E00
1E00
ENDCHAR

STARTCHAR char9491
ENCODING 9491
SWIDTH 617 0
DWIDTH 9 0
BBX 9 15 0 -3
BITMAP
0000
0000
0000
0000
0000
0000
0000
FE00
FE00
FE00
1E00
1E00
1E00
1E00
1E00
ENDCHAR

STARTCHAR C016
ENCODING 9492
SWIDTH 617 0
DWIDTH 9 0
BBX 9 15 0 -3
BITMAP
0c00
0c00
0c00
0c00
0c00
0c00
0c00
0c00
0f80
0000
0000
0000
0000
0000
0000
ENDCHAR

STARTCHAR char9493
ENCODING 9493
SWIDTH 617 0
DWIDTH 9 0
BBX 9 15 0 -3
BITMAP
0C00
0C00
0C00
0C00
0C00
0C00
0C00
0F80
0F80
0F80
0000
0000
0000
0000
0000
ENDCHAR

STARTCHAR char9494
ENCODING 9494
SWIDTH 617 0
DWIDTH 9 0
BBX 9 15 0 -3
BITMAP
1E00
1E00
1E00
1E00
1E00
1E00
1E00
1E00
1F80
0000
0000
0000
0000
0000
0000
ENDCHAR

STARTCHAR char9495
ENCODING 9495
SWIDTH 617 0
DWIDTH 9 0
BBX 9 15 0 -3
BITMAP
1E00
1E00
1E00
1E00
1E00
1E00
1E00
1F80
1F80
1F80
0000
0000
0000
0000
0000
ENDCHAR

STARTCHAR C013
ENCODING 9496
SWIDTH 617 0
DWIDTH 9 0
BBX 9 15 0 -3
BITMAP
0c00
0c00
0c00
0c00
0c00
0c00
0c00
0c00
fc00
0000
0000
0000
0000
0000
0000
ENDCHAR

STARTCHAR char9497
ENCODING 9497
SWIDTH 617 0
DWIDTH 9 0
BBX 9 15 0 -3
BITMAP
0C00
0C00
0C00
0C00
0C00
0C00
0C00
FC00
FC00
FC00
0000
0000
0000
0000
0000
ENDCHAR

STARTCHAR char9498
ENCODING 9498
SWIDTH 617 0
DWIDTH 9 0
BBX 9 15 0 -3
BITMAP
1E00
1E00
1E00
1E00
1E00
1E00
1E00
1E00
FE00
0000
0000
0000
0000
0000
0000
ENDCHAR

STARTCHAR char9499
ENCODING 9499
SWIDTH 617 0
DWIDTH 9 0
BBX 9 15 0 -3
BITMAP
1E00
1E00
1E00
1E00
1E00
1E00
1E00
FE00
FE00
FE00
0000
0000
0000
0000
0000
ENDCHAR

STARTCHAR C025
ENCODING 9500
SWIDTH 617 0
DWIDTH 9 0
BBX 9 15 0 -3
BITMAP
0c00
0c00
0c00
0c00
0c00
0c00
0c00
0c00
0f80
0c00
0c00
0c00
0c00
0c00
0c00
ENDCHAR

STARTCHAR char9501
ENCODING 9501
SWIDTH 617 0
DWIDTH 9 0
BBX 9 15 0 -3
BITMAP
0C00
0C00
0C00
0C00
0C00
0C00
0C00
0F80
0F80
0F80
0C00
0C00
0C00
0C00
0C00
ENDCHAR

STARTCHAR char9502
ENCODING 9502
SWIDTH 617 0
DWIDTH 9 0
BBX 9 15 0 -3
BITMAP
1E00
1E00
1E00
1E00
1E00
1E00
1E00
1E00
1F80
0C00
0C00
0C00
0C00
0C00
0C00
ENDCHAR

STARTCHAR char9503
ENCODING 9503
SWIDTH 617 0
DWIDTH 9 0
BBX 9 15 0 -3
BITMAP
0C00
0C00
0C00
0C00
0C00
0C00
0C00
0C00
1F80
1E00
1E00
1E00
1E00
1E00
1E00
ENDCHAR

STARTCHAR char9504
ENCODING 9504
SWIDTH 617 0
DWIDTH 9 0
BBX 9 15 0 -3
BITMAP
1E00
1E00
1E00
1E00
1E00
1E00
1E00
1E00
1F80
1E00
1E00
1E00
1E00
1E00
1E00
ENDCHAR

STARTCHAR char9505
ENCODING 9505
SWIDTH 617 0
DWIDTH 9 0
BBX 9 15 0 -3
BITMAP
1E00
1E00
1E00
1E00
1E00
1E00
1E00
1F80
1F80
1F80
0C00
0C00
0C00
0C00
0C00
ENDCHAR

STARTCHAR char9506
ENCODING 9506
SWIDTH 617 0
DWIDTH 9 0
BBX 9 15 0 -3
BITMAP
0C00
0C00
0C00
0C00
0C00
0C00
0C00
1F80
1F80
1F80
1E00
1E00
1E00
1E00
1E00
ENDCHAR

STARTCHAR char9507
ENCODING 9507
SWIDTH 617 0
DWIDTH 9 0
BBX 9 15 0 -3
BITMAP
1E00
1E00
1E00
1E00
1E00
1E00
1E00
1F80
1F80
1F80
1E00
1E00
1E00
1E00
1E00
ENDCHAR

STARTCHAR C026
ENCODING 9508
SWIDTH 617 0
DWIDTH 9 0
BBX 9 15 0 -3
BITMAP
0c00
0c00
0c00
0c00
0c00
0c00
0c00
0c00
fc00
0c00
0c00
0c00
0c00
0c00
0c00
ENDCHAR

STARTCHAR char9509
ENCODING 9509
SWIDTH 617 0
DWIDTH 9 0
BBX 9 15 0 -3
BITMAP
0C00
0C00
0C00
0C00
0C00
0C00
0C00
FC00
FC00
FC00
0C00
0C00
0C00
0C00
0C00
ENDCHAR

STARTCHAR char9510
ENCODING 9510
SWIDTH 617 0
DWIDTH 9 0
BBX 9 15 0 -3
BITMAP
1E00
1E00
1E00
1E00
1E00
1E00
1E00
1E00
FE00
0C00
0C00
0C00
0C00
0C00
0C00
ENDCHAR

STARTCHAR char9511
ENCODING 9511
SWIDTH 617 0
DWIDTH 9 0
BBX 9 15 0 -3
BITMAP
0C00
0C00
0C00
0C00
0C00
0C00
0C00
0C00
FE00
1E00
1E00
1E00
1E00
1E00
1E00
ENDCHAR

STARTCHAR char9512
ENCODING 9512
SWIDTH 617 0
DWIDTH 9 0
BBX 9 15 0 -3
BITMAP
1E00
1E00
1E00
1E00
1E00
1E00
1E00
1E00
FE00
1E00
1E00
1E00
1E00
1E00
1E00
ENDCHAR

STARTCHAR char9513
ENCODING 9513
SWIDTH 617 0
DWIDTH 9 0
BBX 9 15 0 -3
BITMAP
1E00
1E00
1E00
1E00
1E00
1E00
1E00
FE00
FE00
FE00
0C00
0C00
0C00
0C00
0C00
ENDCHAR

STARTCHAR char9514
ENCODING 9514
SWIDTH 617 0
DWIDTH 9 0
BBX 9 15 0 -3
BITMAP
0C00
0C00
0C00
0C00
0C00
0C00
0C00
FE00
FE00
FE00
1E00
1E00
1E00
1E00
1E00
ENDCHAR

STARTCHAR char9515
ENCODING 9515
SWIDTH 617 0
DWIDTH 9 0
BBX 9 15 0 -3
BITMAP
1E00
1E00
1E00
1E00
1E00
1E00
1E00
FE00
FE00
FE00
1E00
1E00
1E00
1E00
1E00
ENDCHAR

STARTCHAR C030
ENCODING 9516
SWIDTH 617 0
DWIDTH 9 0
BBX 9 15 0 -3
BITMAP
0000
0000
0000
0000
0000
0000
0000
0000
ff80
0c00
0c00
0c00
0c00
0c00
0c00
ENDCHAR

STARTCHAR char9517
ENCODING 9517
SWIDTH 617 0
DWIDTH 9 0
BBX 9 15 0 -3
BITMAP
0000
0000
0000
0000
0000
0000
0000
FC00
FF80
FC00
0C00
0C00
0C00
0C00
0C00
ENDCHAR

STARTCHAR char9518
ENCODING 9518
SWIDTH 617 0
DWIDTH 9 0
BBX 9 15 0 -3
BITMAP
0000
0000
0000
0000
0000
0000
0000
0F80
FF80
0F80
0C00
0C00
0C00
0C00
0C00
ENDCHAR

STARTCHAR char9519
ENCODING 9519
SWIDTH 617 0
DWIDTH 9 0
BBX 9 15 0 -3
BITMAP
0000
0000
0000
0000
0000
0000
0000
FF80
FF80
FF80
0C00
0C00
0C00
0C00
0C00
ENDCHAR

STARTCHAR char9520
ENCODING 9520
SWIDTH 617 0
DWIDTH 9 0
BBX 9 15 0 -3
BITMAP
0000
0000
0000
0000
0000
0000
0000
0000
FF80
1E00
1E00
1E00
1E00
1E00
1E00
ENDCHAR

STARTCHAR char9521
ENCODING 9521
SWIDTH 617 0
DWIDTH 9 0
BBX 9 15 0 -3
BITMAP
0000
0000
0000
0000
0000
0000
0000
FE00
FF80
FE00
1E00
1E00
1E00
1E00
1E00
ENDCHAR

STARTCHAR char9522
ENCODING 9522
SWIDTH 617 0
DWIDTH 9 0
BBX 9 15 0 -3
BITMAP
0000
0000
0000
0000
0000
0000
0000
1F80
FF80
1F80
1E00
1E00
1E00
1E00
1E00
ENDCHAR

STARTCHAR char9523
ENCODING 9523
SWIDTH 617 0
DWIDTH 9 0
BBX 9 15 0 -3
BITMAP
0000
0000
0000
0000
0000
0000
0000
FF80
FF80
FF80
1E00
1E00
1E00
1E00
1E00
ENDCHAR

STARTCHAR C027
ENCODING 9524
SWIDTH 617 0
DWIDTH 9 0
BBX 9 15 0 -3
BITMAP
0c00
0c00
0c00
0c00
0c00
0c00
0c00
0c00
ff80
0000
0000
0000
0000
0000
0000
ENDCHAR

STARTCHAR char9525
ENCODING 9525
SWIDTH 617 0
DWIDTH 9 0
BBX 9 15 0 -3
BITMAP
0C00
0C00
0C00
0C00
0C00
0C00
0C00
FC00
FF80
FC00
0000
0000
0000
0000
0000
ENDCHAR

STARTCHAR char9526
ENCODING 9526
SWIDTH 617 0
DWIDTH 9 0
BBX 9 15 0 -3
BITMAP
0C00
0C00
0C00
0C00
0C00
0C00
0C00
0F80
FF80
0F80
0000
0000
0000
0000
0000
ENDCHAR

STARTCHAR char9527
ENCODING 9527
SWIDTH 617 0
DWIDTH 9 0
BBX 9 15 0 -3
BITMAP
0C00
0C00
0C00
0C00
0C00
0C00
0C00
FF80
FF80
FF80
0000
0000
0000
0000
0000
ENDCHAR

STARTCHAR char9528
ENCODING 9528
SWIDTH 617 0
DWIDTH 9 0
BBX 9 15 0 -3
BITMAP
1E00
1E00
1E00
1E00
1E00
1E00
1E00
1E00
FF80
0000
0000
0000
0000
0000
0000
ENDCHAR

STARTCHAR char9529
ENCODING 9529
SWIDTH 617 0
DWIDTH 9 0
BBX 9 15 0 -3
BITMAP
1E00
1E00
1E00
1E00
1E00
1E00
1E00
FE00
FF80
FE00
0000
0000
0000
0000
0000
ENDCHAR

STARTCHAR char9530
ENCODING 9530
SWIDTH 617 0
DWIDTH 9 0
BBX 9 15 0 -3
BITMAP
1E00
1E00
1E00
1E00
1E00
1E00
1E00
1F80
FF80
1F80
0000
0000
0000
0000
0000
ENDCHAR

STARTCHAR char9531
ENCODING 9531
SWIDTH 617 0
DWIDTH 9 0
BBX 9 15 0 -3
BITMAP
1E00
1E00
1E00
1E00
1E00
1E00
1E00
FF80
FF80
FF80
0000
0000
0000
0000
0000
ENDCHAR

STARTCHAR C017
ENCODING 9532
SWIDTH 617 0
DWIDTH 9 0
BBX 9 15 0 -3
BITMAP
0c00
0c00
0c00
0c00
0c00
0c00
0c00
0c00
ff80
0c00
0c00
0c00
0c00
0c00
0c00
ENDCHAR

STARTCHAR char9533
ENCODING 9533
SWIDTH 617 0
DWIDTH 9 0
BBX 9 15 0 -3
BITMAP
0C00
0C00
0C00
0C00
0C00
0C00
0C00
FC00
FF80
FC00
0C00
0C00
0C00
0C00
0C00
ENDCHAR

STARTCHAR char9534
ENCODING 9534
SWIDTH 617 0
DWIDTH 9 0
BBX 9 15 0 -3
BITMAP
0C00
0C00
0C00
0C00
0C00
0C00
0C00
0F80
FF80
0F80
0C00
0C00
0C00
0C00
0C00
ENDCHAR

STARTCHAR char9535
ENCODING 9535
SWIDTH 617 0
DWIDTH 9 0
BBX 9 15 0 -3
BITMAP
0C00
0C00
0C00
0C00
0C00
0C00
0C00
FF80
FF80
FF80
0C00
0C00
0C00
0C00
0C00
ENDCHAR

STARTCHAR char9536
ENCODING 9536
SWIDTH 617 0
DWIDTH 9 0
BBX 9 15 0 -3
BITMAP
1E00
1E00
1E00
1E00
1E00
1E00
1E00
1E00
FF80
0C00
0C00
0C00
0C00
0C00
0C00
ENDCHAR

STARTCHAR char9537
ENCODING 9537
SWIDTH 617 0
DWIDTH 9 0
BBX 9 15 0 -3
BITMAP
0C00
0C00
0C00
0C00
0C00
0C00
0C00
0C00
FF80
1E00
1E00
1E00
1E00
1E00
1E00
ENDCHAR

STARTCHAR char9538
ENCODING 9538
SWIDTH 617 0
DWIDTH 9 0
BBX 9 15 0 -3
BITMAP
1E00
1E00
1E00
1E00
1E00
1E00
1E00
1E00
FF80
1E00
1E00
1E00
1E00
1E00
1E00
ENDCHAR

STARTCHAR char9539
ENCODING 9539
SWIDTH 617 0
DWIDTH 9 0
BBX 9 15 0 -3
BITMAP
1E00
1E00
1E00
1E00
1E00
1E00
1E00
FE00
FF80
FE00
0C00
0C00
0C00
0C00
0C00
ENDCHAR

STARTCHAR char9540
ENCODING 9540
SWIDTH 617 0
DWIDTH 9 0
BBX 9 15 0 -3
BITMAP
1E00
1E00
1E00
1E00
1E00
1E00
1E00
1F80
FF80
1F80
0C00
0C00
0C00
0C00
0C00
ENDCHAR

STARTCHAR char9541
ENCODING 9541
SWIDTH 617 0
DWIDTH 9 0
BBX 9 15 0 -3
BITMAP
0C00
0C00
0C00
0C00
0C00
0C00
0C00
FE00
FF80
FE00
1E00
1E00
1E00
1E00
1E00
ENDCHAR

STARTCHAR char9542
ENCODING 9542
SWIDTH 617 0
DWIDTH 9 0
BBX 9 15 0 -3
BITMAP
0C00
0C00
0C00
0C00
0C00
0C00
0C00
1F80
FF80
1F80
1E00
1E00
1E00
1E00
1E00
ENDCHAR

STARTCHAR char9543
ENCODING 9543
SWIDTH 617 0
DWIDTH 9 0
BBX 9 15 0 -3
BITMAP
1E00
1E00
1E00
1E00
1E00
1E00
1E00
FF80
FF80
FF80
0C00
0C00
0C00
0C00
0C00
ENDCHAR

STARTCHAR char9544
ENCODING 9544
SWIDTH 617 0
DWIDTH 9 0
BBX 9 15 0 -3
BITMAP
0C00
0C00
0C00
0C00
0C00
0C00
0C00
FF80
FF80
FF80
1E00
1E00
1E00
1E00
1E00
ENDCHAR

STARTCHAR char9545
ENCODING 9545
SWIDTH 617 0
DWIDTH 9 0
BBX 9 15 0 -3
BITMAP
1E00
1E00
1E00
1E00
1E00
1E00
1E00
FE00
FF80
FE00
1E00
1E00
1E00
1E00
1E00
ENDCHAR

STARTCHAR char9546
ENCODING 9546
SWIDTH 617 0
DWIDTH 9 0
BBX 9 15 0 -3
BITMAP
1E00
1E00
1E00
1E00
1E00
1E00
1E00
1F80
FF80
1F80
1E00
1E00
1E00
1E00
1E00
ENDCHAR

STARTCHAR char9547
ENCODING 9547
SWIDTH 617 0
DWIDTH 9 0
BBX 9 15 0 -3
BITMAP
1E00
1E00
1E00
1E00
1E00
1E00
1E00
FF80
FF80
FF80
1E00
1E00
1E00
1E00
1E00
ENDCHAR

STARTCHAR char9548
ENCODING 9548
SWIDTH 617 0
DWIDTH 9 0
BBX 9 15 0 -3
BITMAP
0000
0000
0000
0000
0000
0000
0000
0000
7B80
0000
0000
0000
0000
0000
0000
ENDCHAR

STARTCHAR char9549
ENCODING 9549
SWIDTH 617 0
DWIDTH 9 0
BBX 9 15 0 -3
BITMAP
0000
0000
0000
0000
0000
0000
0000
7B80
7B80
7B80
0000
0000
0000
0000
0000
ENDCHAR

STARTCHAR char9550
ENCODING 9550
SWIDTH 617 0
DWIDTH 9 0
BBX 9 15 0 -3
BITMAP
0C00
0C00
0C00
0C00
0C00
0C00
0C00
0000
0C00
0C00
0C00
0C00
0C00
0C00
0000
ENDCHAR

STARTCHAR char9551
ENCODING 9551
SWIDTH 617 0
DWIDTH 9 0
BBX 9 15 0 -3
BITMAP
1E00
1E00
1E00
1E00
1E00
1E00
1E00
0000
1E00
1E00
1E00
1E00
1E00
1E00
0000
ENDCHAR

STARTCHAR char9552
ENCODING 9552
SWIDTH 617 0
DWIDTH 9 0
BBX 9 15 0 -3
BITMAP
0000
0000
0000
0000
0000
0000
0000
FF80
0000
FF80
0000
0000
0000
0000
0000
ENDCHAR

STARTCHAR char9553
ENCODING 9553
SWIDTH 617 0
DWIDTH 9 0
BBX 9 15 0 -3
BITMAP
3600
3600
3600
3600
3600
3600
3600
3600
3600
3600
3600
3600
3600
3600
3600
ENDCHAR

STARTCHAR char9554
ENCODING 9554
SWIDTH 617 0
DWIDTH 9 0
BBX 9 15 0 -3
BITMAP
0000
0000
0000
0000
0000
0000
0000
0F80
0C00
0F80
0C00
0C00
0C00
0C00
0C00
ENDCHAR

STARTCHAR char9555
ENCODING 9555
SWIDTH 617 0
DWIDTH 9 0
BBX 9 15 0 -3
BITMAP
0000
0000
0000
0000
0000
0000
0000
0000
3F80
3600
3600
3600
3600
3600
3600
ENDCHAR

STARTCHAR char9556
ENCODING 9556
SWIDTH 617 0
DWIDTH 9 0
BBX 9 15 0 -3
BITMAP
0000
0000
0000
0000
0000
0000
0000
3F80
3000
3780
3600
3600
3600
3600
3600
ENDCHAR

STARTCHAR char9557
ENCODING 9557
SWIDTH 617 0
DWIDTH 9 0
BBX 9 15 0 -3
BITMAP
0000
0000
0000
0000
0000
0000
0000
FC00
0400
FC00
0C00
0C00
0C00
0C00
0C00
ENDCHAR

STARTCHAR char9558
ENCODING 9558
SWIDTH 617 0
DWIDTH 9 0
BBX 9 15 0 -3
BITMAP
0000
0000
0000
0000
0000
0000
0000
0000
FE00
3600
3600
3600
3600
3600
3600
ENDCHAR

STARTCHAR char9559
ENCODING 9559
SWIDTH 617 0
DWIDTH 9 0
BBX 9 15 0 -3
BITMAP
0000
0000
0000
0000
0000
0000
0000
FE00
0600
F600
3600
3600
3600
3600
3600
ENDCHAR

STARTCHAR char9560
ENCODING 9560
SWIDTH 617 0
DWIDTH 9 0
BBX 9 15 0 -3
BITMAP
0C00
0C00
0C00
0C00
0C00
0C00
0C00
0F80
0C00
0F80
0000
0000
0000
0000
0000
ENDCHAR

STARTCHAR char9561
ENCODING 9561
SWIDTH 617 0
DWIDTH 9 0
BBX 9 15 0 -3
BITMAP
3600
3600
3600
3600
3600
3600
3600
3600
3F80
0000
0000
0000
0000
0000
0000
ENDCHAR

STARTCHAR char9562
ENCODING 9562
SWIDTH 617 0
DWIDTH 9 0
BBX 9 15 0 -3
BITMAP
3600
3600
3600
3600
3600
3600
3600
3780
3000
3F80
0000
0000
0000
0000
0000
ENDCHAR

STARTCHAR char9563
ENCODING 9563
SWIDTH 617 0
DWIDTH 9 0
BBX 9 15 0 -3
BITMAP
0C00
0C00
0C00
0C00
0C00
0C00
0C00
FC00
0C00
FC00
0000
0000
0000
0000
0000
ENDCHAR

STARTCHAR char9564
ENCODING 9564
SWIDTH 617 0
DWIDTH 9 0
BBX 9 15 0 -3
BITMAP
3600
3600
3600
3600
3600
3600
3600
3600
FE00
0000
0000
0000
0000
0000
0000
ENDCHAR

STARTCHAR char9565
ENCODING 9565
SWIDTH 617 0
DWIDTH 9 0
BBX 9 15 0 -3
BITMAP
3600
3600
3600
3600
3600
3600
3600
F600
0600
FE00
0000
0000
0000
0000
0000
ENDCHAR

STARTCHAR char9566
ENCODING 9566
SWIDTH 617 0
DWIDTH 9 0
BBX 9 15 0 -3
BITMAP
0C00
0C00
0C00
0C00
0C00
0C00
0C00
0F80
0C00
0F80
0C00
0C00
0C00
0C00
0C00
ENDCHAR

STARTCHAR char9567
ENCODING 9567
SWIDTH 617 0
DWIDTH 9 0
BBX 9 15 0 -3
BITMAP
3600
3600
3600
3600
3600
3600
3600
3600
3780
3600
3600
3600
3600
3600
3600
ENDCHAR

STARTCHAR char9568
ENCODING 9568
SWIDTH 617 0
DWIDTH 9 0
BBX 9 15 0 -3
BITMAP
3600
3600
3600
3600
3600
3600
3600
3780
3000
3780
3600
3600
3600
3600
3600
ENDCHAR

STARTCHAR char9569
ENCODING 9569
SWIDTH 617 0
DWIDTH 9 0
BBX 9 15 0 -3
BITMAP
0C00
0C00
0C00
0C00
0C00
0C00
0C00
FC00
0C00
FC00
0C00
0C00
0C00
0C00
0C00
ENDCHAR

STARTCHAR char9570
ENCODING 9570
SWIDTH 617 0
DWIDTH 9 0
BBX 9 15 0 -3
BITMAP
3600
3600
3600
3600
3600
3600
3600
3600
F600
3600
3600
3600
3600
3600
3600
ENDCHAR

STARTCHAR char9571
ENCODING 9571
SWIDTH 617 0
DWIDTH 9 0
BBX 9 15 0 -3
BITMAP
3600
3600
3600
3600
3600
3600
3600
F600
0600
F600
3600
3600
3600
3600
3600
ENDCHAR

STARTCHAR char9572
ENCODING 9572
SWIDTH 617 0
DWIDTH 9 0
BBX 9 15 0 -3
BITMAP
0000
0000
0000
0000
0000
0000
0000
FF80
0000
FF80
0C00
0C00
0C00
0C00
0C00
ENDCHAR

STARTCHAR char9573
ENCODING 9573
SWIDTH 617 0
DWIDTH 9 0
BBX 9 15 0 -3
BITMAP
0000
0000
0000
0000
0000
0000
0000
0000
FF80
3600
3600
3600
3600
3600
3600
ENDCHAR

STARTCHAR char9574
ENCODING 9574
SWIDTH 617 0
DWIDTH 9 0
BBX 9 15 0 -3
BITMAP
0000
0000
0000
0000
0000
0000
0000
FF80
0000
F780
3600
3600
3600
3600
3600
ENDCHAR

STARTCHAR char9575
ENCODING 9575
SWIDTH 617 0
DWIDTH 9 0
BBX 9 15 0 -3
BITMAP
0C00
0C00
0C00
0C00
0C00
0C00
0C00
FF80
0000
FF80
0000
0000
0000
0000
0000
ENDCHAR

STARTCHAR char9576
ENCODING 9576
SWIDTH 617 0
DWIDTH 9 0
BBX 9 15 0 -3
BITMAP
3600
3600
3600
3600
3600
3600
3600
3600
FF80
0000
0000
0000
0000
0000
0000
ENDCHAR

STARTCHAR char9577
ENCODING 9577
SWIDTH 617 0
DWIDTH 9 0
BBX 9 15 0 -3
BITMAP
3600
3600
3600
3600
3600
3600
3600
F780
0000
FF80
0000
0000
0000
0000
0000
ENDCHAR

STARTCHAR char9578
ENCODING 9578
SWIDTH 617 0
DWIDTH 9 0
BBX 9 15 0 -3
BITMAP
0C00
0C00
0C00
0C00
0C00
0C00
0C00
FF80
0C00
FF80
0C00
0C00
0C00
0C00
0C00
ENDCHAR

STARTCHAR char9579
ENCODING 9579
SWIDTH 617 0
DWIDTH 9 0
BBX 9 15 0 -3
BITMAP
3600
3600
3600
3600
3600
3600
3600
3600
FF80
3600
3600
3600
3600
3600
3600
ENDCHAR

STARTCHAR char9580
ENCODING 9580
SWIDTH 617 0
DWIDTH 9 0
BBX 9 15 0 -3
BITMAP
3600
3600
3600
3600
3600
3600
3600
F780
0000
F780
3600
3600
3600
3600
3600
ENDCHAR

STARTCHAR char9581
ENCODING 9581
SWIDTH 617 0
DWIDTH 9 0
BBX 9 15 0 -3
BITMAP
0000
0000
0000
0000
0000
0000
0000
0000
0380
0600
0C00
0C00
0C00
0C00
0C00
ENDCHAR

STARTCHAR char9582
ENCODING 9582
SWIDTH 617 0
DWIDTH 9 0
BBX 9 15 0 -3
BITMAP
0000
0000
0000
0000
0000
0000
0000
0000
F000
1800
0C00
0C00
0C00
0C00
0C00
ENDCHAR

STARTCHAR char9583
ENCODING 9583
SWIDTH 617 0
DWIDTH 9 0
BBX 9 15 0 -3
BITMAP
0C00
0C00
0C00
0C00
0C00
0C00
0C00
1800
F000
0000
0000
0000
0000
0000
0000
ENDCHAR

STARTCHAR char9584
ENCODING 9584
SWIDTH 617 0
DWIDTH 9 0
BBX 9 15 0 -3
BITMAP
0C00
0C00
0C00
0C00
0C00
0C00
0C00
0600
0380
0000
0000
0000
0000
0000
0000
ENDCHAR

STARTCHAR char9585
ENCODING 9585
SWIDTH 617 0
DWIDTH 9 0
BBX 9 15 0 -3
BITMAP
0080
0100
0100
0200
0200
0400
0400
0800
1000
1000
2000
2000
4000
4000
8000
ENDCHAR

STARTCHAR char9586
ENCODING 9586
SWIDTH 617 0
DWIDTH 9 0
BBX 9 15 0 -3
BITMAP
8000
4000
4000
2000
2000
1000
1000
0800
0400
0400
0200
0200
0100
0100
0080
ENDCHAR

STARTCHAR char9587
ENCODING 9587
SWIDTH 617 0
DWIDTH 9 0
BBX 9 15 0 -3
BITMAP
8080
4100
4100
2200
2200
1400
1400
0800
1400
1400
2200
2200
4100
4100
8080
ENDCHAR

STARTCHAR char9588
ENCODING 9588
SWIDTH 617 0
DWIDTH 9 0
BBX 9 15 0 -3
BITMAP
0000
0000
0000
0000
0000
0000
0000
0000
FC00
0000
0000
0000
0000
0000
0000
ENDCHAR

STARTCHAR char9589
ENCODING 9589
SWIDTH 617 0
DWIDTH 9 0
BBX 9 15 0 -3
BITMAP
0C00
0C00
0C00
0C00
0C00
0C00
0C00
0C00
0C00
0000
0000
0000
0000
0000
0000
ENDCHAR

STARTCHAR char9590
ENCODING 9590
SWIDTH 617 0
DWIDTH 9 0
BBX 9 15 0 -3
BITMAP
0000
0000
0000
0000
0000
0000
0000
0000
0F80
0000
0000
0000
0000
0000
0000
ENDCHAR

STARTCHAR char9591
ENCODING 9591
SWIDTH 617 0
DWIDTH 9 0
BBX 9 15 0 -3
BITMAP
0000
0000
0000
0000
0000
0000
0000
0000
0C00
0C00
0C00
0C00
0C00
0C00
0C00
ENDCHAR

STARTCHAR char9592
ENCODING 9592
SWIDTH 617 0
DWIDTH 9 0
BBX 9 15 0 -3
BITMAP
0000
0000
0000
0000
0000
0000
0000
FE00
FE00
FE00
0000
0000
0000
0000
0000
ENDCHAR

STARTCHAR char9593
ENCODING 9593
SWIDTH 617 0
DWIDTH 9 0
BBX 9 15 0 -3
BITMAP
1E00
1E00
1E00
1E00
1E00
1E00
1E00
1E00
1E00
1E00
0000
0000
0000
0000
0000
ENDCHAR

STARTCHAR char9594
ENCODING 9594
SWIDTH 617 0
DWIDTH 9 0
BBX 9 15 0 -3
BITMAP
0000
0000
0000
0000
0000
0000
0000
1F80
1F80
1F80
0000
0000
0000
0000
0000
ENDCHAR

STARTCHAR char9595
ENCODING 9595
SWIDTH 617 0
DWIDTH 9 0
BBX 9 15 0 -3
BITMAP
0000
0000
0000
0000
0000
0000
0000
1E00
1E00
1E00
1E00
1E00
1E00
1E00
1E00
ENDCHAR

STARTCHAR char9596
ENCODING 9596
SWIDTH 617 0
DWIDTH 9 0
BBX 9 15 0 -3
BITMAP
0000
0000
0000
0000
0000
0000
0000
1F80
FF80
1F80
0000
0000
0000
0000
0000
ENDCHAR

STARTCHAR char9597
ENCODING 9597
SWIDTH 617 0
DWIDTH 9 0
BBX 9 15 0 -3
BITMAP
0C00
0C00
0C00
0C00
0C00
0C00
0C00
1E00
1E00
1E00
1E00
1E00
1E00
1E00
1E00
ENDCHAR

STARTCHAR char9598
ENCODING 9598
SWIDTH 617 0
DWIDTH 9 0
BBX 9 15 0 -3
BITMAP
0000
0000
0000
0000
0000
0000
0000
FE00
FF80
FE00
0000
0000
0000
0000
0000
ENDCHAR

STARTCHAR char9599
ENCODING 9599
SWIDTH 617 0
DWIDTH 9 0
BBX 9 15 0 -3
BITMAP
1E00
1E00
1E00
1E00
1E00
1E00
1E00
1E00
1E00
1E00
0C00
0C00
0C00
0C00
0C00
ENDCHAR

STARTCHAR char9600
ENCODING 9600
SWIDTH 617 0
DWIDTH 9 0
BBX 9 15 0 -3
BITMAP
FF80
FF80
FF80
FF80
FF80
FF80
FF80
FF80
0000
0000
0000
0000
0000
0000
0000
ENDCHAR

STARTCHAR char9601
ENCODING 9601
SWIDTH 617 0
DWIDTH 9 0
BBX 9 15 0 -3
BITMAP
0000
0000
0000
0000
0000
0000
0000
0000
0000
0000
0000
0000
0000
FF80
FF80
ENDCHAR

STARTCHAR char9602
ENCODING 9602
SWIDTH 617 0
DWIDTH 9 0
BBX 9 15 0 -3
BITMAP
0000
0000
0000
0000
0000
0000
0000
0000
0000
0000
0000
FF80
FF80
FF80
FF80
ENDCHAR

STARTCHAR char9603
ENCODING 9603
SWIDTH 617 0
DWIDTH 9 0
BBX 9 15 0 -3
BITMAP
0000
0000
0000
0000
0000
0000
0000
0000
0000
FF80
FF80
FF80
FF80
FF80
FF80
ENDCHAR

STARTCHAR char9604
ENCODING 9604
SWIDTH 617 0
DWIDTH 9 0
BBX 9 15 0 -3
BITMAP
0000
0000
0000
0000
0000
0000
0000
0000
FF80
FF80
FF80
FF80
FF80
FF80
FF80
ENDCHAR

STARTCHAR char9605
ENCODING 9605
SWIDTH 617 0
DWIDTH 9 0
BBX 9 15 0 -3
BITMAP
0000
0000
0000
0000
0000
0000
FF80
FF80
FF80
FF80
FF80
FF80
FF80
FF80
FF80
ENDCHAR

STARTCHAR char9606
ENCODING 9606
SWIDTH 617 0
DWIDTH 9 0
BBX 9 15 0 -3
BITMAP
0000
0000
0000
0000
FF80
FF80
FF80
FF80
FF80
FF80
FF80
FF80
FF80
FF80
FF80
ENDCHAR

STARTCHAR char9607
ENCODING 9607
SWIDTH 617 0
DWIDTH 9 0
BBX 9 15 0 -3
BITMAP
0000
0000
FF80
FF80
FF80
FF80
FF80
FF80
FF80
FF80
FF80
FF80
FF80
FF80
FF80
ENDCHAR

STARTCHAR char9608
ENCODING 9608
SWIDTH 617 0
DWIDTH 9 0
BBX 9 15 0 -3
BITMAP
FF80
FF80
FF80
FF80
FF80
FF80
FF80
FF80
FF80
FF80
FF80
FF80
FF80
FF80
FF80
ENDCHAR

STARTCHAR char9609
ENCODING 9609
SWIDTH 617 0
DWIDTH 9 0
BBX 9 15 0 -3
BITMAP
FF00
FF00
FF00
FF00
FF00
FF00
FF00
FF00
FF00
FF00
FF00
FF00
FF00
FF00
FF00
ENDCHAR

STARTCHAR char9610
ENCODING 9610
SWIDTH 617 0
DWIDTH 9 0
BBX 9 15 0 -3
BITMAP
FE00
FE00
FE00
FE00
FE00
FE00
FE00
FE00
FE00
FE00
FE00
FE00
FE00
FE00
FE00
ENDCHAR

STARTCHAR char9611
ENCODING 9611
SWIDTH 617 0
DWIDTH 9 0
BBX 9 15 0 -3
BITMAP
FC00
FC00
FC00
FC00
FC00
FC00
FC00
FC00
FC00
FC00
FC00
FC00
FC00
FC00
FC00
ENDCHAR

STARTCHAR char9612
ENCODING 9612
SWIDTH 617 0
DWIDTH 9 0
BBX 9 15 0 -3
BITMAP
F800
F800
F800
F800
F800
F800
F800
F800
F800
F800
F800
F800
F800
F800
F800
ENDCHAR

STARTCHAR char9613
ENCODING 9613
SWIDTH 617 0
DWIDTH 9 0
BBX 9 15 0 -3
BITMAP
E000
E000
E000
E000
E000
E000
E000
E000
E000
E000
E000
E000
E000
E000
E000
ENDCHAR

STARTCHAR char9614
ENCODING 9614
SWIDTH 617 0
DWIDTH 9 0
BBX 9 15 0 -3
BITMAP
C000
C000
C000
C000
C000
C000
C000
C000
C000
C000
C000
C000
C000
C000
C000
ENDCHAR

STARTCHAR char9615
ENCODING 9615
SWIDTH 617 0
DWIDTH 9 0
BBX 9 15 0 -3
BITMAP
8000
8000
8000
8000
8000
8000
8000
8000
8000
8000
8000
8000
8000
8000
8000
ENDCHAR

STARTCHAR char9616
ENCODING 9616
SWIDTH 617 0
DWIDTH 9 0
BBX 9 15 0 -3
BITMAP
0780
0780
0780
0780
0780
0780
0780
0780
0780
0780
0780
0780
0780
0780
0780
ENDCHAR

STARTCHAR char9617
ENCODING 9617
SWIDTH 617 0
DWIDTH 9 0
BBX 9 15 0 -3
BITMAP
2480
4900
0000
2480
4900
0000
2480
4900
0000
2480
4900
0000
2480
4900
0000
ENDCHAR

STARTCHAR C002
ENCODING 9618
SWIDTH 617 0
DWIDTH 9 0
BBX 9 15 0 -3
BITMAP
B680
4900
B680
B680
4900
B680
B680
4900
B680
B680
4900
B680
B680
4900
B680
ENDCHAR

STARTCHAR char9619
ENCODING 9619
SWIDTH 617 0
DWIDTH 9 0
BBX 9 15 0 -3
BITMAP
DB00
B680
FF80
DB00
B680
FF80
DB00
B680
FF80
DB00
B680
FF80
DB00
B680
FF80
ENDCHAR

STARTCHAR char9620
ENCODING 9620
SWIDTH 617 0
DWIDTH 9 0
BBX 9 15 0 -3
BITMAP
FF80
FF80
0000
0000
0000
0000
0000
0000
0000
0000
0000
0000
0000
0000
0000
ENDCHAR

STARTCHAR char9621
ENCODING 9621
SWIDTH 617 0
DWIDTH 9 0
BBX 9 15 0 -3
BITMAP
0080
0080
0080
0080
0080
0080
0080
0080
0080
0080
0080
0080
0080
0080
0080
ENDCHAR

STARTCHAR char9622
ENCODING 9622
SWIDTH 617 0
DWIDTH 9 0
BBX 9 15 0 -3
BITMAP
0000
0000
0000
0000
0000
0000
0000
0000
F800
F800
F800
F800
F800
F800
F800
ENDCHAR

STARTCHAR char9623
ENCODING 9623
SWIDTH 617 0
DWIDTH 9 0
BBX 9 15 0 -3
BITMAP
0000
0000
0000
0000
0000
0000
0000
0000
0780
0780
0780
0780
0780
0780
0780
ENDCHAR

STARTCHAR char9624
ENCODING 9624
SWIDTH 617 0
DWIDTH 9 0
BBX 9 15 0 -3
BITMAP
F800
F800
F800
F800
F800
F800
F800
F800
0000
0000
0000
0000
0000
0000
0000
ENDCHAR

STARTCHAR char9626
ENCODING 9625
SWIDTH 617 0
DWIDTH 9 0
BBX 9 15 0 -3
BITMAP
F800
F800
F800
F800
F800
F800
F800
F800
FF80
FF80
FF80
FF80
FF80
FF80
FF80
ENDCHAR

STARTCHAR char9627
ENCODING 9626
SWIDTH 617 0
DWIDTH 9 0
BBX 9 15 0 -3
BITMAP
F800
F800
F800
F800
F800
F800
F800
F800
0780
0780
0780
0780
0780
0780
0780
ENDCHAR

STARTCHAR char9628
ENCODING 9627
SWIDTH 617 0
DWIDTH 9 0
BBX 9 15 0 -3
BITMAP
FF80
FF80
FF80
FF80
FF80
FF80
FF80
FF80
F800
F800
F800
F800
F800
F800
F800
ENDCHAR

STARTCHAR char9628
ENCODING 9628
SWIDTH 617 0
DWIDTH 9 0
BBX 9 15 0 -3
BITMAP
FF80
FF80
FF80
FF80
FF80
FF80
FF80
FF80
0780
0780
0780
0780
0780
0780
0780
ENDCHAR

STARTCHAR char9625
ENCODING 9629
SWIDTH 617 0
DWIDTH 9 0
BBX 9 15 0 -3
BITMAP
0780
0780
0780
0780
0780
0780
0780
0780
0000
0000
0000
0000
0000
0000
0000
ENDCHAR

STARTCHAR char9630
ENCODING 9630
SWIDTH 617 0
DWIDTH 9 0
BBX 9 15 0 -3
BITMAP
0780
0780
0780
0780
0780
0780
0780
0780
F800
F800
F800
F800
F800
F800
F800
ENDCHAR

STARTCHAR char9631
ENCODING 9631
SWIDTH 617 0
DWIDTH 9 0
BBX 9 15 0 -3
BITMAP
0780
0780
0780
0780
0780
0780
0780
0780
FF80
FF80
FF80
FF80
FF80
FF80
FF80
ENDCHAR

STARTCHAR C001
ENCODING 9830
SWIDTH 617 0
DWIDTH 9 0
BBX 9 15 0 -3
BITMAP
0000
0000
0000
0000
0c00
1e00
3f00
7f80
3f00
1e00
0c00
0000
0000
0000
0000
ENDCHAR

STARTCHAR uniFFFD
ENCODING 65533
SWIDTH 540 0
DWIDTH 9 0
BBX 9 15 0 -3
BITMAP
0000
0000
3F00
6180
4C80
7C80
7980
7380
7380
7F80
7380
3F00
0000
0000
0000
ENDCHAR
ENDFONT
